%FSLAX45Y45*%
G04 Gerber Fmt 4.5, Leading zero omitted, Abs format (unit mm)*
G04 Created by KiCad (PCBNEW (6.0.4)) date 2023-03-15 02:05:19*
%MOMM*%
%LPD*%
G01*
G04 APERTURE LIST*
%TA.AperFunction,Profile*%
%ADD10C,0.100000*%
%TD*%
%ADD11C,0.200000*%
%ADD12C,0.400000*%
G04 APERTURE END LIST*
D10*
X14200000Y-7900000D02*
X21700000Y-7900000D01*
X21700000Y-7900000D02*
X21700000Y-13100000D01*
X21700000Y-13100000D02*
X14200000Y-13100000D01*
X14200000Y-13100000D02*
X14200000Y-7900000D01*
D11*
D12*
X15210000Y-12100000D02*
X15610000Y-12500000D01*
X15610000Y-12100000D02*
X15210000Y-12500000D01*
X19800000Y-9980000D02*
X20200000Y-10380000D01*
X20200000Y-9980000D02*
X19800000Y-10380000D01*
D11*
X14452619Y-13415476D02*
X14452619Y-13215476D01*
X14500238Y-13215476D01*
X14528809Y-13225000D01*
X14547857Y-13244048D01*
X14557381Y-13263095D01*
X14566905Y-13301190D01*
X14566905Y-13329762D01*
X14557381Y-13367857D01*
X14547857Y-13386905D01*
X14528809Y-13405952D01*
X14500238Y-13415476D01*
X14452619Y-13415476D01*
X14652619Y-13415476D02*
X14652619Y-13282143D01*
X14652619Y-13320238D02*
X14662143Y-13301190D01*
X14671667Y-13291667D01*
X14690714Y-13282143D01*
X14709762Y-13282143D01*
X14776428Y-13415476D02*
X14776428Y-13282143D01*
X14776428Y-13215476D02*
X14766905Y-13225000D01*
X14776428Y-13234524D01*
X14785952Y-13225000D01*
X14776428Y-13215476D01*
X14776428Y-13234524D01*
X14900238Y-13415476D02*
X14881190Y-13405952D01*
X14871667Y-13386905D01*
X14871667Y-13215476D01*
X15005000Y-13415476D02*
X14985952Y-13405952D01*
X14976428Y-13386905D01*
X14976428Y-13215476D01*
X15233571Y-13415476D02*
X15233571Y-13215476D01*
X15300238Y-13358333D01*
X15366905Y-13215476D01*
X15366905Y-13415476D01*
X15547857Y-13415476D02*
X15547857Y-13310714D01*
X15538333Y-13291667D01*
X15519286Y-13282143D01*
X15481190Y-13282143D01*
X15462143Y-13291667D01*
X15547857Y-13405952D02*
X15528809Y-13415476D01*
X15481190Y-13415476D01*
X15462143Y-13405952D01*
X15452619Y-13386905D01*
X15452619Y-13367857D01*
X15462143Y-13348809D01*
X15481190Y-13339286D01*
X15528809Y-13339286D01*
X15547857Y-13329762D01*
X15643095Y-13282143D02*
X15643095Y-13482143D01*
X15643095Y-13291667D02*
X15662143Y-13282143D01*
X15700238Y-13282143D01*
X15719286Y-13291667D01*
X15728809Y-13301190D01*
X15738333Y-13320238D01*
X15738333Y-13377381D01*
X15728809Y-13396428D01*
X15719286Y-13405952D01*
X15700238Y-13415476D01*
X15662143Y-13415476D01*
X15643095Y-13405952D01*
X15824048Y-13396428D02*
X15833571Y-13405952D01*
X15824048Y-13415476D01*
X15814524Y-13405952D01*
X15824048Y-13396428D01*
X15824048Y-13415476D01*
X15824048Y-13291667D02*
X15833571Y-13301190D01*
X15824048Y-13310714D01*
X15814524Y-13301190D01*
X15824048Y-13291667D01*
X15824048Y-13310714D01*
X13995000Y-13645000D02*
X14195000Y-13845000D01*
X14195000Y-13645000D02*
X13995000Y-13845000D01*
X14538333Y-13702143D02*
X14538333Y-13835476D01*
X14490714Y-13625952D02*
X14443095Y-13768809D01*
X14566905Y-13768809D01*
X14643095Y-13816428D02*
X14652619Y-13825952D01*
X14643095Y-13835476D01*
X14633571Y-13825952D01*
X14643095Y-13816428D01*
X14643095Y-13835476D01*
X14776428Y-13635476D02*
X14795476Y-13635476D01*
X14814524Y-13645000D01*
X14824048Y-13654524D01*
X14833571Y-13673571D01*
X14843095Y-13711667D01*
X14843095Y-13759286D01*
X14833571Y-13797381D01*
X14824048Y-13816428D01*
X14814524Y-13825952D01*
X14795476Y-13835476D01*
X14776428Y-13835476D01*
X14757381Y-13825952D01*
X14747857Y-13816428D01*
X14738333Y-13797381D01*
X14728809Y-13759286D01*
X14728809Y-13711667D01*
X14738333Y-13673571D01*
X14747857Y-13654524D01*
X14757381Y-13645000D01*
X14776428Y-13635476D01*
X14966905Y-13635476D02*
X14985952Y-13635476D01*
X15005000Y-13645000D01*
X15014524Y-13654524D01*
X15024048Y-13673571D01*
X15033571Y-13711667D01*
X15033571Y-13759286D01*
X15024048Y-13797381D01*
X15014524Y-13816428D01*
X15005000Y-13825952D01*
X14985952Y-13835476D01*
X14966905Y-13835476D01*
X14947857Y-13825952D01*
X14938333Y-13816428D01*
X14928809Y-13797381D01*
X14919286Y-13759286D01*
X14919286Y-13711667D01*
X14928809Y-13673571D01*
X14938333Y-13654524D01*
X14947857Y-13645000D01*
X14966905Y-13635476D01*
X15157381Y-13635476D02*
X15176428Y-13635476D01*
X15195476Y-13645000D01*
X15205000Y-13654524D01*
X15214524Y-13673571D01*
X15224048Y-13711667D01*
X15224048Y-13759286D01*
X15214524Y-13797381D01*
X15205000Y-13816428D01*
X15195476Y-13825952D01*
X15176428Y-13835476D01*
X15157381Y-13835476D01*
X15138333Y-13825952D01*
X15128809Y-13816428D01*
X15119286Y-13797381D01*
X15109762Y-13759286D01*
X15109762Y-13711667D01*
X15119286Y-13673571D01*
X15128809Y-13654524D01*
X15138333Y-13645000D01*
X15157381Y-13635476D01*
X15309762Y-13835476D02*
X15309762Y-13702143D01*
X15309762Y-13721190D02*
X15319286Y-13711667D01*
X15338333Y-13702143D01*
X15366905Y-13702143D01*
X15385952Y-13711667D01*
X15395476Y-13730714D01*
X15395476Y-13835476D01*
X15395476Y-13730714D02*
X15405000Y-13711667D01*
X15424048Y-13702143D01*
X15452619Y-13702143D01*
X15471667Y-13711667D01*
X15481190Y-13730714D01*
X15481190Y-13835476D01*
X15576428Y-13835476D02*
X15576428Y-13702143D01*
X15576428Y-13721190D02*
X15585952Y-13711667D01*
X15605000Y-13702143D01*
X15633571Y-13702143D01*
X15652619Y-13711667D01*
X15662143Y-13730714D01*
X15662143Y-13835476D01*
X15662143Y-13730714D02*
X15671667Y-13711667D01*
X15690714Y-13702143D01*
X15719286Y-13702143D01*
X15738333Y-13711667D01*
X15747857Y-13730714D01*
X15747857Y-13835476D01*
X16138333Y-13625952D02*
X15966905Y-13883095D01*
X16395476Y-13635476D02*
X16414524Y-13635476D01*
X16433571Y-13645000D01*
X16443095Y-13654524D01*
X16452619Y-13673571D01*
X16462143Y-13711667D01*
X16462143Y-13759286D01*
X16452619Y-13797381D01*
X16443095Y-13816428D01*
X16433571Y-13825952D01*
X16414524Y-13835476D01*
X16395476Y-13835476D01*
X16376428Y-13825952D01*
X16366905Y-13816428D01*
X16357381Y-13797381D01*
X16347857Y-13759286D01*
X16347857Y-13711667D01*
X16357381Y-13673571D01*
X16366905Y-13654524D01*
X16376428Y-13645000D01*
X16395476Y-13635476D01*
X16547857Y-13816428D02*
X16557381Y-13825952D01*
X16547857Y-13835476D01*
X16538333Y-13825952D01*
X16547857Y-13816428D01*
X16547857Y-13835476D01*
X16747857Y-13835476D02*
X16633571Y-13835476D01*
X16690714Y-13835476D02*
X16690714Y-13635476D01*
X16671667Y-13664048D01*
X16652619Y-13683095D01*
X16633571Y-13692619D01*
X16928810Y-13635476D02*
X16833571Y-13635476D01*
X16824048Y-13730714D01*
X16833571Y-13721190D01*
X16852619Y-13711667D01*
X16900238Y-13711667D01*
X16919286Y-13721190D01*
X16928810Y-13730714D01*
X16938333Y-13749762D01*
X16938333Y-13797381D01*
X16928810Y-13816428D01*
X16919286Y-13825952D01*
X16900238Y-13835476D01*
X16852619Y-13835476D01*
X16833571Y-13825952D01*
X16824048Y-13816428D01*
X17005000Y-13635476D02*
X17138333Y-13635476D01*
X17052619Y-13835476D01*
X17309762Y-13635476D02*
X17214524Y-13635476D01*
X17205000Y-13730714D01*
X17214524Y-13721190D01*
X17233571Y-13711667D01*
X17281190Y-13711667D01*
X17300238Y-13721190D01*
X17309762Y-13730714D01*
X17319286Y-13749762D01*
X17319286Y-13797381D01*
X17309762Y-13816428D01*
X17300238Y-13825952D01*
X17281190Y-13835476D01*
X17233571Y-13835476D01*
X17214524Y-13825952D01*
X17205000Y-13816428D01*
X17395476Y-13635476D02*
X17395476Y-13673571D01*
X17471667Y-13635476D02*
X17471667Y-13673571D01*
X17766905Y-13911667D02*
X17757381Y-13902143D01*
X17738333Y-13873571D01*
X17728810Y-13854524D01*
X17719286Y-13825952D01*
X17709762Y-13778333D01*
X17709762Y-13740238D01*
X17719286Y-13692619D01*
X17728810Y-13664048D01*
X17738333Y-13645000D01*
X17757381Y-13616428D01*
X17766905Y-13606905D01*
X17833571Y-13654524D02*
X17843095Y-13645000D01*
X17862143Y-13635476D01*
X17909762Y-13635476D01*
X17928810Y-13645000D01*
X17938333Y-13654524D01*
X17947857Y-13673571D01*
X17947857Y-13692619D01*
X17938333Y-13721190D01*
X17824048Y-13835476D01*
X17947857Y-13835476D01*
X18185952Y-13835476D02*
X18185952Y-13635476D01*
X18271667Y-13835476D02*
X18271667Y-13730714D01*
X18262143Y-13711667D01*
X18243095Y-13702143D01*
X18214524Y-13702143D01*
X18195476Y-13711667D01*
X18185952Y-13721190D01*
X18395476Y-13835476D02*
X18376429Y-13825952D01*
X18366905Y-13816428D01*
X18357381Y-13797381D01*
X18357381Y-13740238D01*
X18366905Y-13721190D01*
X18376429Y-13711667D01*
X18395476Y-13702143D01*
X18424048Y-13702143D01*
X18443095Y-13711667D01*
X18452619Y-13721190D01*
X18462143Y-13740238D01*
X18462143Y-13797381D01*
X18452619Y-13816428D01*
X18443095Y-13825952D01*
X18424048Y-13835476D01*
X18395476Y-13835476D01*
X18576429Y-13835476D02*
X18557381Y-13825952D01*
X18547857Y-13806905D01*
X18547857Y-13635476D01*
X18728810Y-13825952D02*
X18709762Y-13835476D01*
X18671667Y-13835476D01*
X18652619Y-13825952D01*
X18643095Y-13806905D01*
X18643095Y-13730714D01*
X18652619Y-13711667D01*
X18671667Y-13702143D01*
X18709762Y-13702143D01*
X18728810Y-13711667D01*
X18738333Y-13730714D01*
X18738333Y-13749762D01*
X18643095Y-13768809D01*
X18814524Y-13825952D02*
X18833571Y-13835476D01*
X18871667Y-13835476D01*
X18890714Y-13825952D01*
X18900238Y-13806905D01*
X18900238Y-13797381D01*
X18890714Y-13778333D01*
X18871667Y-13768809D01*
X18843095Y-13768809D01*
X18824048Y-13759286D01*
X18814524Y-13740238D01*
X18814524Y-13730714D01*
X18824048Y-13711667D01*
X18843095Y-13702143D01*
X18871667Y-13702143D01*
X18890714Y-13711667D01*
X18966905Y-13911667D02*
X18976429Y-13902143D01*
X18995476Y-13873571D01*
X19005000Y-13854524D01*
X19014524Y-13825952D01*
X19024048Y-13778333D01*
X19024048Y-13740238D01*
X19014524Y-13692619D01*
X19005000Y-13664048D01*
X18995476Y-13645000D01*
X18976429Y-13616428D01*
X18966905Y-13606905D01*
X19328810Y-13911667D02*
X19319286Y-13902143D01*
X19300238Y-13873571D01*
X19290714Y-13854524D01*
X19281190Y-13825952D01*
X19271667Y-13778333D01*
X19271667Y-13740238D01*
X19281190Y-13692619D01*
X19290714Y-13664048D01*
X19300238Y-13645000D01*
X19319286Y-13616428D01*
X19328810Y-13606905D01*
X19405000Y-13702143D02*
X19405000Y-13835476D01*
X19405000Y-13721190D02*
X19414524Y-13711667D01*
X19433571Y-13702143D01*
X19462143Y-13702143D01*
X19481190Y-13711667D01*
X19490714Y-13730714D01*
X19490714Y-13835476D01*
X19614524Y-13835476D02*
X19595476Y-13825952D01*
X19585952Y-13816428D01*
X19576429Y-13797381D01*
X19576429Y-13740238D01*
X19585952Y-13721190D01*
X19595476Y-13711667D01*
X19614524Y-13702143D01*
X19643095Y-13702143D01*
X19662143Y-13711667D01*
X19671667Y-13721190D01*
X19681190Y-13740238D01*
X19681190Y-13797381D01*
X19671667Y-13816428D01*
X19662143Y-13825952D01*
X19643095Y-13835476D01*
X19614524Y-13835476D01*
X19738333Y-13702143D02*
X19814524Y-13702143D01*
X19766905Y-13635476D02*
X19766905Y-13806905D01*
X19776429Y-13825952D01*
X19795476Y-13835476D01*
X19814524Y-13835476D01*
X20033571Y-13702143D02*
X20033571Y-13902143D01*
X20033571Y-13711667D02*
X20052619Y-13702143D01*
X20090714Y-13702143D01*
X20109762Y-13711667D01*
X20119286Y-13721190D01*
X20128810Y-13740238D01*
X20128810Y-13797381D01*
X20119286Y-13816428D01*
X20109762Y-13825952D01*
X20090714Y-13835476D01*
X20052619Y-13835476D01*
X20033571Y-13825952D01*
X20243095Y-13835476D02*
X20224048Y-13825952D01*
X20214524Y-13806905D01*
X20214524Y-13635476D01*
X20405000Y-13835476D02*
X20405000Y-13730714D01*
X20395476Y-13711667D01*
X20376429Y-13702143D01*
X20338333Y-13702143D01*
X20319286Y-13711667D01*
X20405000Y-13825952D02*
X20385952Y-13835476D01*
X20338333Y-13835476D01*
X20319286Y-13825952D01*
X20309762Y-13806905D01*
X20309762Y-13787857D01*
X20319286Y-13768809D01*
X20338333Y-13759286D01*
X20385952Y-13759286D01*
X20405000Y-13749762D01*
X20471667Y-13702143D02*
X20547857Y-13702143D01*
X20500238Y-13635476D02*
X20500238Y-13806905D01*
X20509762Y-13825952D01*
X20528810Y-13835476D01*
X20547857Y-13835476D01*
X20690714Y-13825952D02*
X20671667Y-13835476D01*
X20633571Y-13835476D01*
X20614524Y-13825952D01*
X20605000Y-13806905D01*
X20605000Y-13730714D01*
X20614524Y-13711667D01*
X20633571Y-13702143D01*
X20671667Y-13702143D01*
X20690714Y-13711667D01*
X20700238Y-13730714D01*
X20700238Y-13749762D01*
X20605000Y-13768809D01*
X20871667Y-13835476D02*
X20871667Y-13635476D01*
X20871667Y-13825952D02*
X20852619Y-13835476D01*
X20814524Y-13835476D01*
X20795476Y-13825952D01*
X20785952Y-13816428D01*
X20776429Y-13797381D01*
X20776429Y-13740238D01*
X20785952Y-13721190D01*
X20795476Y-13711667D01*
X20814524Y-13702143D01*
X20852619Y-13702143D01*
X20871667Y-13711667D01*
X20947857Y-13911667D02*
X20957381Y-13902143D01*
X20976429Y-13873571D01*
X20985952Y-13854524D01*
X20995476Y-13825952D01*
X21005000Y-13778333D01*
X21005000Y-13740238D01*
X20995476Y-13692619D01*
X20985952Y-13664048D01*
X20976429Y-13645000D01*
X20957381Y-13616428D01*
X20947857Y-13606905D01*
M02*
