G04 #@! TF.GenerationSoftware,KiCad,Pcbnew,(6.0.4)*
G04 #@! TF.CreationDate,2023-03-15T02:05:12+00:00*
G04 #@! TF.ProjectId,ts_808,74735f38-3038-42e6-9b69-6361645f7063,rev?*
G04 #@! TF.SameCoordinates,Original*
G04 #@! TF.FileFunction,Legend,Top*
G04 #@! TF.FilePolarity,Positive*
%FSLAX46Y46*%
G04 Gerber Fmt 4.6, Leading zero omitted, Abs format (unit mm)*
G04 Created by KiCad (PCBNEW (6.0.4)) date 2023-03-15 02:05:12*
%MOMM*%
%LPD*%
G01*
G04 APERTURE LIST*
%ADD10C,0.254000*%
%ADD11C,0.100000*%
%ADD12C,0.150000*%
%ADD13C,0.120000*%
%ADD14C,0.200000*%
%ADD15C,2.000000*%
%ADD16O,1.600000X1.600000*%
%ADD17C,1.600000*%
%ADD18R,1.600000X1.600000*%
%ADD19R,1.500000X1.500000*%
%ADD20C,1.500000*%
%ADD21C,4.000000*%
%ADD22C,1.800000*%
%ADD23R,1.800000X1.800000*%
%ADD24R,1.130000X1.130000*%
%ADD25C,1.130000*%
G04 APERTURE END LIST*
D10*
X174839047Y-118324523D02*
X174415714Y-117719761D01*
X174113333Y-118324523D02*
X174113333Y-117054523D01*
X174597142Y-117054523D01*
X174718095Y-117115000D01*
X174778571Y-117175476D01*
X174839047Y-117296428D01*
X174839047Y-117477857D01*
X174778571Y-117598809D01*
X174718095Y-117659285D01*
X174597142Y-117719761D01*
X174113333Y-117719761D01*
X176109047Y-118203571D02*
X176048571Y-118264047D01*
X175867142Y-118324523D01*
X175746190Y-118324523D01*
X175564761Y-118264047D01*
X175443809Y-118143095D01*
X175383333Y-118022142D01*
X175322857Y-117780238D01*
X175322857Y-117598809D01*
X175383333Y-117356904D01*
X175443809Y-117235952D01*
X175564761Y-117115000D01*
X175746190Y-117054523D01*
X175867142Y-117054523D01*
X176048571Y-117115000D01*
X176109047Y-117175476D01*
X177197619Y-117477857D02*
X177197619Y-118324523D01*
X176895238Y-116994047D02*
X176592857Y-117901190D01*
X177379047Y-117901190D01*
X178467619Y-117054523D02*
X177862857Y-117054523D01*
X177802380Y-117659285D01*
X177862857Y-117598809D01*
X177983809Y-117538333D01*
X178286190Y-117538333D01*
X178407142Y-117598809D01*
X178467619Y-117659285D01*
X178528095Y-117780238D01*
X178528095Y-118082619D01*
X178467619Y-118203571D01*
X178407142Y-118264047D01*
X178286190Y-118324523D01*
X177983809Y-118324523D01*
X177862857Y-118264047D01*
X177802380Y-118203571D01*
X179677142Y-117054523D02*
X179072380Y-117054523D01*
X179011904Y-117659285D01*
X179072380Y-117598809D01*
X179193333Y-117538333D01*
X179495714Y-117538333D01*
X179616666Y-117598809D01*
X179677142Y-117659285D01*
X179737619Y-117780238D01*
X179737619Y-118082619D01*
X179677142Y-118203571D01*
X179616666Y-118264047D01*
X179495714Y-118324523D01*
X179193333Y-118324523D01*
X179072380Y-118264047D01*
X179011904Y-118203571D01*
X180463333Y-117598809D02*
X180342380Y-117538333D01*
X180281904Y-117477857D01*
X180221428Y-117356904D01*
X180221428Y-117296428D01*
X180281904Y-117175476D01*
X180342380Y-117115000D01*
X180463333Y-117054523D01*
X180705238Y-117054523D01*
X180826190Y-117115000D01*
X180886666Y-117175476D01*
X180947142Y-117296428D01*
X180947142Y-117356904D01*
X180886666Y-117477857D01*
X180826190Y-117538333D01*
X180705238Y-117598809D01*
X180463333Y-117598809D01*
X180342380Y-117659285D01*
X180281904Y-117719761D01*
X180221428Y-117840714D01*
X180221428Y-118082619D01*
X180281904Y-118203571D01*
X180342380Y-118264047D01*
X180463333Y-118324523D01*
X180705238Y-118324523D01*
X180826190Y-118264047D01*
X180886666Y-118203571D01*
X180947142Y-118082619D01*
X180947142Y-117840714D01*
X180886666Y-117719761D01*
X180826190Y-117659285D01*
X180705238Y-117598809D01*
D11*
X152305214Y-87417904D02*
X152762357Y-87417904D01*
X152433785Y-88217904D02*
X152533785Y-87417904D01*
X152895690Y-88179809D02*
X153005214Y-88217904D01*
X153195690Y-88217904D01*
X153276642Y-88179809D01*
X153319500Y-88141714D01*
X153367119Y-88065523D01*
X153376642Y-87989333D01*
X153348071Y-87913142D01*
X153314738Y-87875047D01*
X153243309Y-87836952D01*
X153095690Y-87798857D01*
X153024261Y-87760761D01*
X152990928Y-87722666D01*
X152962357Y-87646476D01*
X152971880Y-87570285D01*
X153019500Y-87494095D01*
X153062357Y-87456000D01*
X153143309Y-87417904D01*
X153333785Y-87417904D01*
X153443309Y-87456000D01*
X153729023Y-87913142D02*
X154338547Y-87913142D01*
X154852833Y-87760761D02*
X154781404Y-87722666D01*
X154748071Y-87684571D01*
X154719500Y-87608380D01*
X154724261Y-87570285D01*
X154771880Y-87494095D01*
X154814738Y-87456000D01*
X154895690Y-87417904D01*
X155048071Y-87417904D01*
X155119500Y-87456000D01*
X155152833Y-87494095D01*
X155181404Y-87570285D01*
X155176642Y-87608380D01*
X155129023Y-87684571D01*
X155086166Y-87722666D01*
X155005214Y-87760761D01*
X154852833Y-87760761D01*
X154771880Y-87798857D01*
X154729023Y-87836952D01*
X154681404Y-87913142D01*
X154662357Y-88065523D01*
X154690928Y-88141714D01*
X154724261Y-88179809D01*
X154795690Y-88217904D01*
X154948071Y-88217904D01*
X155029023Y-88179809D01*
X155071880Y-88141714D01*
X155119500Y-88065523D01*
X155138547Y-87913142D01*
X155109976Y-87836952D01*
X155076642Y-87798857D01*
X155005214Y-87760761D01*
X155695690Y-87417904D02*
X155771880Y-87417904D01*
X155843309Y-87456000D01*
X155876642Y-87494095D01*
X155905214Y-87570285D01*
X155924261Y-87722666D01*
X155900452Y-87913142D01*
X155843309Y-88065523D01*
X155795690Y-88141714D01*
X155752833Y-88179809D01*
X155671880Y-88217904D01*
X155595690Y-88217904D01*
X155524261Y-88179809D01*
X155490928Y-88141714D01*
X155462357Y-88065523D01*
X155443309Y-87913142D01*
X155467119Y-87722666D01*
X155524261Y-87570285D01*
X155571880Y-87494095D01*
X155614738Y-87456000D01*
X155695690Y-87417904D01*
X156376642Y-87760761D02*
X156305214Y-87722666D01*
X156271880Y-87684571D01*
X156243309Y-87608380D01*
X156248071Y-87570285D01*
X156295690Y-87494095D01*
X156338547Y-87456000D01*
X156419500Y-87417904D01*
X156571880Y-87417904D01*
X156643309Y-87456000D01*
X156676642Y-87494095D01*
X156705214Y-87570285D01*
X156700452Y-87608380D01*
X156652833Y-87684571D01*
X156609976Y-87722666D01*
X156529023Y-87760761D01*
X156376642Y-87760761D01*
X156295690Y-87798857D01*
X156252833Y-87836952D01*
X156205214Y-87913142D01*
X156186166Y-88065523D01*
X156214738Y-88141714D01*
X156248071Y-88179809D01*
X156319500Y-88217904D01*
X156471880Y-88217904D01*
X156552833Y-88179809D01*
X156595690Y-88141714D01*
X156643309Y-88065523D01*
X156662357Y-87913142D01*
X156633785Y-87836952D01*
X156600452Y-87798857D01*
X156529023Y-87760761D01*
X157576642Y-88217904D02*
X157676642Y-87417904D01*
X157638547Y-87722666D02*
X157719500Y-87684571D01*
X157871880Y-87684571D01*
X157943309Y-87722666D01*
X157976642Y-87760761D01*
X158005214Y-87836952D01*
X157976642Y-88065523D01*
X157929023Y-88141714D01*
X157886166Y-88179809D01*
X157805214Y-88217904D01*
X157652833Y-88217904D01*
X157581404Y-88179809D01*
X158290928Y-87684571D02*
X158414738Y-88217904D01*
X158671880Y-87684571D02*
X158414738Y-88217904D01*
X158314738Y-88408380D01*
X158271880Y-88446476D01*
X158190928Y-88484571D01*
X152338547Y-89505904D02*
X152438547Y-88705904D01*
X152629023Y-88705904D01*
X152738547Y-88744000D01*
X152805214Y-88820190D01*
X152833785Y-88896380D01*
X152852833Y-89048761D01*
X152838547Y-89163047D01*
X152781404Y-89315428D01*
X152733785Y-89391619D01*
X152648071Y-89467809D01*
X152529023Y-89505904D01*
X152338547Y-89505904D01*
X153481404Y-89505904D02*
X153533785Y-89086857D01*
X153505214Y-89010666D01*
X153433785Y-88972571D01*
X153281404Y-88972571D01*
X153200452Y-89010666D01*
X153486166Y-89467809D02*
X153405214Y-89505904D01*
X153214738Y-89505904D01*
X153143309Y-89467809D01*
X153114738Y-89391619D01*
X153124261Y-89315428D01*
X153171880Y-89239238D01*
X153252833Y-89201142D01*
X153443309Y-89201142D01*
X153524261Y-89163047D01*
X153929023Y-88972571D02*
X153862357Y-89505904D01*
X153919500Y-89048761D02*
X153962357Y-89010666D01*
X154043309Y-88972571D01*
X154157595Y-88972571D01*
X154229023Y-89010666D01*
X154257595Y-89086857D01*
X154205214Y-89505904D01*
X154586166Y-89505904D02*
X154652833Y-88972571D01*
X154686166Y-88705904D02*
X154643309Y-88744000D01*
X154676642Y-88782095D01*
X154719500Y-88744000D01*
X154686166Y-88705904D01*
X154676642Y-88782095D01*
X155276642Y-89467809D02*
X155195690Y-89505904D01*
X155043309Y-89505904D01*
X154971880Y-89467809D01*
X154943309Y-89391619D01*
X154981404Y-89086857D01*
X155029023Y-89010666D01*
X155109976Y-88972571D01*
X155262357Y-88972571D01*
X155333785Y-89010666D01*
X155362357Y-89086857D01*
X155352833Y-89163047D01*
X154962357Y-89239238D01*
X155767119Y-89505904D02*
X155695690Y-89467809D01*
X155667119Y-89391619D01*
X155752833Y-88705904D01*
X157000452Y-89086857D02*
X156733785Y-89086857D01*
X156681404Y-89505904D02*
X156781404Y-88705904D01*
X157162357Y-88705904D01*
X157376642Y-89429714D02*
X157409976Y-89467809D01*
X157367119Y-89505904D01*
X157333785Y-89467809D01*
X157376642Y-89429714D01*
X157367119Y-89505904D01*
X157714738Y-89467809D02*
X157824261Y-89505904D01*
X158014738Y-89505904D01*
X158095690Y-89467809D01*
X158138547Y-89429714D01*
X158186166Y-89353523D01*
X158195690Y-89277333D01*
X158167119Y-89201142D01*
X158133785Y-89163047D01*
X158062357Y-89124952D01*
X157914738Y-89086857D01*
X157843309Y-89048761D01*
X157809976Y-89010666D01*
X157781404Y-88934476D01*
X157790928Y-88858285D01*
X157838547Y-88782095D01*
X157881404Y-88744000D01*
X157962357Y-88705904D01*
X158152833Y-88705904D01*
X158262357Y-88744000D01*
X158519500Y-89429714D02*
X158552833Y-89467809D01*
X158509976Y-89505904D01*
X158476642Y-89467809D01*
X158519500Y-89429714D01*
X158509976Y-89505904D01*
D12*
X212238095Y-112502000D02*
X212142857Y-112454380D01*
X212000000Y-112454380D01*
X211857142Y-112502000D01*
X211761904Y-112597238D01*
X211714285Y-112692476D01*
X211666666Y-112882952D01*
X211666666Y-113025809D01*
X211714285Y-113216285D01*
X211761904Y-113311523D01*
X211857142Y-113406761D01*
X212000000Y-113454380D01*
X212095238Y-113454380D01*
X212238095Y-113406761D01*
X212285714Y-113359142D01*
X212285714Y-113025809D01*
X212095238Y-113025809D01*
X212714285Y-113454380D02*
X212714285Y-112454380D01*
X213285714Y-113454380D01*
X213285714Y-112454380D01*
X213761904Y-113454380D02*
X213761904Y-112454380D01*
X214000000Y-112454380D01*
X214142857Y-112502000D01*
X214238095Y-112597238D01*
X214285714Y-112692476D01*
X214333333Y-112882952D01*
X214333333Y-113025809D01*
X214285714Y-113216285D01*
X214238095Y-113311523D01*
X214142857Y-113406761D01*
X214000000Y-113454380D01*
X213761904Y-113454380D01*
X145357142Y-105202380D02*
X145023809Y-104726190D01*
X144785714Y-105202380D02*
X144785714Y-104202380D01*
X145166666Y-104202380D01*
X145261904Y-104250000D01*
X145309523Y-104297619D01*
X145357142Y-104392857D01*
X145357142Y-104535714D01*
X145309523Y-104630952D01*
X145261904Y-104678571D01*
X145166666Y-104726190D01*
X144785714Y-104726190D01*
X145738095Y-104297619D02*
X145785714Y-104250000D01*
X145880952Y-104202380D01*
X146119047Y-104202380D01*
X146214285Y-104250000D01*
X146261904Y-104297619D01*
X146309523Y-104392857D01*
X146309523Y-104488095D01*
X146261904Y-104630952D01*
X145690476Y-105202380D01*
X146309523Y-105202380D01*
X146690476Y-104297619D02*
X146738095Y-104250000D01*
X146833333Y-104202380D01*
X147071428Y-104202380D01*
X147166666Y-104250000D01*
X147214285Y-104297619D01*
X147261904Y-104392857D01*
X147261904Y-104488095D01*
X147214285Y-104630952D01*
X146642857Y-105202380D01*
X147261904Y-105202380D01*
X198583333Y-122107142D02*
X198535714Y-122154761D01*
X198392857Y-122202380D01*
X198297619Y-122202380D01*
X198154761Y-122154761D01*
X198059523Y-122059523D01*
X198011904Y-121964285D01*
X197964285Y-121773809D01*
X197964285Y-121630952D01*
X198011904Y-121440476D01*
X198059523Y-121345238D01*
X198154761Y-121250000D01*
X198297619Y-121202380D01*
X198392857Y-121202380D01*
X198535714Y-121250000D01*
X198583333Y-121297619D01*
X198916666Y-121202380D02*
X199583333Y-121202380D01*
X199154761Y-122202380D01*
X147583333Y-117452380D02*
X147250000Y-116976190D01*
X147011904Y-117452380D02*
X147011904Y-116452380D01*
X147392857Y-116452380D01*
X147488095Y-116500000D01*
X147535714Y-116547619D01*
X147583333Y-116642857D01*
X147583333Y-116785714D01*
X147535714Y-116880952D01*
X147488095Y-116928571D01*
X147392857Y-116976190D01*
X147011904Y-116976190D01*
X147964285Y-116547619D02*
X148011904Y-116500000D01*
X148107142Y-116452380D01*
X148345238Y-116452380D01*
X148440476Y-116500000D01*
X148488095Y-116547619D01*
X148535714Y-116642857D01*
X148535714Y-116738095D01*
X148488095Y-116880952D01*
X147916666Y-117452380D01*
X148535714Y-117452380D01*
X166233333Y-101307142D02*
X166185714Y-101354761D01*
X166042857Y-101402380D01*
X165947619Y-101402380D01*
X165804761Y-101354761D01*
X165709523Y-101259523D01*
X165661904Y-101164285D01*
X165614285Y-100973809D01*
X165614285Y-100830952D01*
X165661904Y-100640476D01*
X165709523Y-100545238D01*
X165804761Y-100450000D01*
X165947619Y-100402380D01*
X166042857Y-100402380D01*
X166185714Y-100450000D01*
X166233333Y-100497619D01*
X167090476Y-100735714D02*
X167090476Y-101402380D01*
X166852380Y-100354761D02*
X166614285Y-101069047D01*
X167233333Y-101069047D01*
X144476190Y-81652380D02*
X144476190Y-80652380D01*
X144952380Y-81652380D02*
X144952380Y-80652380D01*
X145523809Y-81652380D01*
X145523809Y-80652380D01*
X186357142Y-107452380D02*
X186023809Y-106976190D01*
X185785714Y-107452380D02*
X185785714Y-106452380D01*
X186166666Y-106452380D01*
X186261904Y-106500000D01*
X186309523Y-106547619D01*
X186357142Y-106642857D01*
X186357142Y-106785714D01*
X186309523Y-106880952D01*
X186261904Y-106928571D01*
X186166666Y-106976190D01*
X185785714Y-106976190D01*
X187309523Y-107452380D02*
X186738095Y-107452380D01*
X187023809Y-107452380D02*
X187023809Y-106452380D01*
X186928571Y-106595238D01*
X186833333Y-106690476D01*
X186738095Y-106738095D01*
X187642857Y-106452380D02*
X188309523Y-106452380D01*
X187880952Y-107452380D01*
X170714285Y-80928571D02*
X170380952Y-80928571D01*
X170380952Y-81452380D02*
X170380952Y-80452380D01*
X170857142Y-80452380D01*
X171380952Y-81452380D02*
X171285714Y-81404761D01*
X171238095Y-81309523D01*
X171238095Y-80452380D01*
X171761904Y-81452380D02*
X171761904Y-80785714D01*
X171761904Y-80452380D02*
X171714285Y-80500000D01*
X171761904Y-80547619D01*
X171809523Y-80500000D01*
X171761904Y-80452380D01*
X171761904Y-80547619D01*
X172238095Y-80785714D02*
X172238095Y-81785714D01*
X172238095Y-80833333D02*
X172333333Y-80785714D01*
X172523809Y-80785714D01*
X172619047Y-80833333D01*
X172666666Y-80880952D01*
X172714285Y-80976190D01*
X172714285Y-81261904D01*
X172666666Y-81357142D01*
X172619047Y-81404761D01*
X172523809Y-81452380D01*
X172333333Y-81452380D01*
X172238095Y-81404761D01*
X173047619Y-80452380D02*
X173666666Y-80452380D01*
X173333333Y-80833333D01*
X173476190Y-80833333D01*
X173571428Y-80880952D01*
X173619047Y-80928571D01*
X173666666Y-81023809D01*
X173666666Y-81261904D01*
X173619047Y-81357142D01*
X173571428Y-81404761D01*
X173476190Y-81452380D01*
X173190476Y-81452380D01*
X173095238Y-81404761D01*
X173047619Y-81357142D01*
X150083333Y-105202380D02*
X149750000Y-104726190D01*
X149511904Y-105202380D02*
X149511904Y-104202380D01*
X149892857Y-104202380D01*
X149988095Y-104250000D01*
X150035714Y-104297619D01*
X150083333Y-104392857D01*
X150083333Y-104535714D01*
X150035714Y-104630952D01*
X149988095Y-104678571D01*
X149892857Y-104726190D01*
X149511904Y-104726190D01*
X151035714Y-105202380D02*
X150464285Y-105202380D01*
X150750000Y-105202380D02*
X150750000Y-104202380D01*
X150654761Y-104345238D01*
X150559523Y-104440476D01*
X150464285Y-104488095D01*
X161333333Y-107357142D02*
X161285714Y-107404761D01*
X161142857Y-107452380D01*
X161047619Y-107452380D01*
X160904761Y-107404761D01*
X160809523Y-107309523D01*
X160761904Y-107214285D01*
X160714285Y-107023809D01*
X160714285Y-106880952D01*
X160761904Y-106690476D01*
X160809523Y-106595238D01*
X160904761Y-106500000D01*
X161047619Y-106452380D01*
X161142857Y-106452380D01*
X161285714Y-106500000D01*
X161333333Y-106547619D01*
X161714285Y-106547619D02*
X161761904Y-106500000D01*
X161857142Y-106452380D01*
X162095238Y-106452380D01*
X162190476Y-106500000D01*
X162238095Y-106547619D01*
X162285714Y-106642857D01*
X162285714Y-106738095D01*
X162238095Y-106880952D01*
X161666666Y-107452380D01*
X162285714Y-107452380D01*
X207761904Y-109202380D02*
X207761904Y-108202380D01*
X208000000Y-108202380D01*
X208142857Y-108250000D01*
X208238095Y-108345238D01*
X208285714Y-108440476D01*
X208333333Y-108630952D01*
X208333333Y-108773809D01*
X208285714Y-108964285D01*
X208238095Y-109059523D01*
X208142857Y-109154761D01*
X208000000Y-109202380D01*
X207761904Y-109202380D01*
X209238095Y-108202380D02*
X208761904Y-108202380D01*
X208714285Y-108678571D01*
X208761904Y-108630952D01*
X208857142Y-108583333D01*
X209095238Y-108583333D01*
X209190476Y-108630952D01*
X209238095Y-108678571D01*
X209285714Y-108773809D01*
X209285714Y-109011904D01*
X209238095Y-109107142D01*
X209190476Y-109154761D01*
X209095238Y-109202380D01*
X208857142Y-109202380D01*
X208761904Y-109154761D01*
X208714285Y-109107142D01*
X157333333Y-102202380D02*
X157000000Y-101726190D01*
X156761904Y-102202380D02*
X156761904Y-101202380D01*
X157142857Y-101202380D01*
X157238095Y-101250000D01*
X157285714Y-101297619D01*
X157333333Y-101392857D01*
X157333333Y-101535714D01*
X157285714Y-101630952D01*
X157238095Y-101678571D01*
X157142857Y-101726190D01*
X156761904Y-101726190D01*
X157666666Y-101202380D02*
X158333333Y-101202380D01*
X157904761Y-102202380D01*
X154714285Y-80928571D02*
X154380952Y-80928571D01*
X154380952Y-81452380D02*
X154380952Y-80452380D01*
X154857142Y-80452380D01*
X155380952Y-81452380D02*
X155285714Y-81404761D01*
X155238095Y-81309523D01*
X155238095Y-80452380D01*
X155761904Y-81452380D02*
X155761904Y-80785714D01*
X155761904Y-80452380D02*
X155714285Y-80500000D01*
X155761904Y-80547619D01*
X155809523Y-80500000D01*
X155761904Y-80452380D01*
X155761904Y-80547619D01*
X156238095Y-80785714D02*
X156238095Y-81785714D01*
X156238095Y-80833333D02*
X156333333Y-80785714D01*
X156523809Y-80785714D01*
X156619047Y-80833333D01*
X156666666Y-80880952D01*
X156714285Y-80976190D01*
X156714285Y-81261904D01*
X156666666Y-81357142D01*
X156619047Y-81404761D01*
X156523809Y-81452380D01*
X156333333Y-81452380D01*
X156238095Y-81404761D01*
X157095238Y-80547619D02*
X157142857Y-80500000D01*
X157238095Y-80452380D01*
X157476190Y-80452380D01*
X157571428Y-80500000D01*
X157619047Y-80547619D01*
X157666666Y-80642857D01*
X157666666Y-80738095D01*
X157619047Y-80880952D01*
X157047619Y-81452380D01*
X157666666Y-81452380D01*
X167833333Y-107357142D02*
X167785714Y-107404761D01*
X167642857Y-107452380D01*
X167547619Y-107452380D01*
X167404761Y-107404761D01*
X167309523Y-107309523D01*
X167261904Y-107214285D01*
X167214285Y-107023809D01*
X167214285Y-106880952D01*
X167261904Y-106690476D01*
X167309523Y-106595238D01*
X167404761Y-106500000D01*
X167547619Y-106452380D01*
X167642857Y-106452380D01*
X167785714Y-106500000D01*
X167833333Y-106547619D01*
X168166666Y-106452380D02*
X168785714Y-106452380D01*
X168452380Y-106833333D01*
X168595238Y-106833333D01*
X168690476Y-106880952D01*
X168738095Y-106928571D01*
X168785714Y-107023809D01*
X168785714Y-107261904D01*
X168738095Y-107357142D01*
X168690476Y-107404761D01*
X168595238Y-107452380D01*
X168309523Y-107452380D01*
X168214285Y-107404761D01*
X168166666Y-107357142D01*
X175857142Y-81652380D02*
X175285714Y-81652380D01*
X175571428Y-81652380D02*
X175571428Y-80652380D01*
X175476190Y-80795238D01*
X175380952Y-80890476D01*
X175285714Y-80938095D01*
X176142857Y-80652380D02*
X176476190Y-81652380D01*
X176809523Y-80652380D01*
X166714285Y-80928571D02*
X166380952Y-80928571D01*
X166380952Y-81452380D02*
X166380952Y-80452380D01*
X166857142Y-80452380D01*
X167380952Y-81452380D02*
X167285714Y-81404761D01*
X167238095Y-81309523D01*
X167238095Y-80452380D01*
X167761904Y-81452380D02*
X167761904Y-80785714D01*
X167761904Y-80452380D02*
X167714285Y-80500000D01*
X167761904Y-80547619D01*
X167809523Y-80500000D01*
X167761904Y-80452380D01*
X167761904Y-80547619D01*
X168238095Y-80785714D02*
X168238095Y-81785714D01*
X168238095Y-80833333D02*
X168333333Y-80785714D01*
X168523809Y-80785714D01*
X168619047Y-80833333D01*
X168666666Y-80880952D01*
X168714285Y-80976190D01*
X168714285Y-81261904D01*
X168666666Y-81357142D01*
X168619047Y-81404761D01*
X168523809Y-81452380D01*
X168333333Y-81452380D01*
X168238095Y-81404761D01*
X169666666Y-81452380D02*
X169095238Y-81452380D01*
X169380952Y-81452380D02*
X169380952Y-80452380D01*
X169285714Y-80595238D01*
X169190476Y-80690476D01*
X169095238Y-80738095D01*
X205357142Y-97202380D02*
X205023809Y-96726190D01*
X204785714Y-97202380D02*
X204785714Y-96202380D01*
X205166666Y-96202380D01*
X205261904Y-96250000D01*
X205309523Y-96297619D01*
X205357142Y-96392857D01*
X205357142Y-96535714D01*
X205309523Y-96630952D01*
X205261904Y-96678571D01*
X205166666Y-96726190D01*
X204785714Y-96726190D01*
X206309523Y-97202380D02*
X205738095Y-97202380D01*
X206023809Y-97202380D02*
X206023809Y-96202380D01*
X205928571Y-96345238D01*
X205833333Y-96440476D01*
X205738095Y-96488095D01*
X207166666Y-96535714D02*
X207166666Y-97202380D01*
X206928571Y-96154761D02*
X206690476Y-96869047D01*
X207309523Y-96869047D01*
X151785714Y-81652380D02*
X151214285Y-81652380D01*
X151500000Y-81652380D02*
X151500000Y-80652380D01*
X151404761Y-80795238D01*
X151309523Y-80890476D01*
X151214285Y-80938095D01*
X152214285Y-81652380D02*
X152214285Y-80652380D01*
X152452380Y-80652380D01*
X152595238Y-80700000D01*
X152690476Y-80795238D01*
X152738095Y-80890476D01*
X152785714Y-81080952D01*
X152785714Y-81223809D01*
X152738095Y-81414285D01*
X152690476Y-81509523D01*
X152595238Y-81604761D01*
X152452380Y-81652380D01*
X152214285Y-81652380D01*
X162011904Y-86452380D02*
X162011904Y-85452380D01*
X162250000Y-85452380D01*
X162392857Y-85500000D01*
X162488095Y-85595238D01*
X162535714Y-85690476D01*
X162583333Y-85880952D01*
X162583333Y-86023809D01*
X162535714Y-86214285D01*
X162488095Y-86309523D01*
X162392857Y-86404761D01*
X162250000Y-86452380D01*
X162011904Y-86452380D01*
X163535714Y-86452380D02*
X162964285Y-86452380D01*
X163250000Y-86452380D02*
X163250000Y-85452380D01*
X163154761Y-85595238D01*
X163059523Y-85690476D01*
X162964285Y-85738095D01*
X205607142Y-121107142D02*
X205559523Y-121154761D01*
X205416666Y-121202380D01*
X205321428Y-121202380D01*
X205178571Y-121154761D01*
X205083333Y-121059523D01*
X205035714Y-120964285D01*
X204988095Y-120773809D01*
X204988095Y-120630952D01*
X205035714Y-120440476D01*
X205083333Y-120345238D01*
X205178571Y-120250000D01*
X205321428Y-120202380D01*
X205416666Y-120202380D01*
X205559523Y-120250000D01*
X205607142Y-120297619D01*
X206559523Y-121202380D02*
X205988095Y-121202380D01*
X206273809Y-121202380D02*
X206273809Y-120202380D01*
X206178571Y-120345238D01*
X206083333Y-120440476D01*
X205988095Y-120488095D01*
X206940476Y-120297619D02*
X206988095Y-120250000D01*
X207083333Y-120202380D01*
X207321428Y-120202380D01*
X207416666Y-120250000D01*
X207464285Y-120297619D01*
X207511904Y-120392857D01*
X207511904Y-120488095D01*
X207464285Y-120630952D01*
X206892857Y-121202380D01*
X207511904Y-121202380D01*
X160333333Y-117452380D02*
X160000000Y-116976190D01*
X159761904Y-117452380D02*
X159761904Y-116452380D01*
X160142857Y-116452380D01*
X160238095Y-116500000D01*
X160285714Y-116547619D01*
X160333333Y-116642857D01*
X160333333Y-116785714D01*
X160285714Y-116880952D01*
X160238095Y-116928571D01*
X160142857Y-116976190D01*
X159761904Y-116976190D01*
X161190476Y-116452380D02*
X161000000Y-116452380D01*
X160904761Y-116500000D01*
X160857142Y-116547619D01*
X160761904Y-116690476D01*
X160714285Y-116880952D01*
X160714285Y-117261904D01*
X160761904Y-117357142D01*
X160809523Y-117404761D01*
X160904761Y-117452380D01*
X161095238Y-117452380D01*
X161190476Y-117404761D01*
X161238095Y-117357142D01*
X161285714Y-117261904D01*
X161285714Y-117023809D01*
X161238095Y-116928571D01*
X161190476Y-116880952D01*
X161095238Y-116833333D01*
X160904761Y-116833333D01*
X160809523Y-116880952D01*
X160761904Y-116928571D01*
X160714285Y-117023809D01*
X187838095Y-80652380D02*
X188457142Y-80652380D01*
X188123809Y-81033333D01*
X188266666Y-81033333D01*
X188361904Y-81080952D01*
X188409523Y-81128571D01*
X188457142Y-81223809D01*
X188457142Y-81461904D01*
X188409523Y-81557142D01*
X188361904Y-81604761D01*
X188266666Y-81652380D01*
X187980952Y-81652380D01*
X187885714Y-81604761D01*
X187838095Y-81557142D01*
X188742857Y-80652380D02*
X189076190Y-81652380D01*
X189409523Y-80652380D01*
X152304761Y-93147619D02*
X152209523Y-93100000D01*
X152114285Y-93004761D01*
X151971428Y-92861904D01*
X151876190Y-92814285D01*
X151780952Y-92814285D01*
X151828571Y-93052380D02*
X151733333Y-93004761D01*
X151638095Y-92909523D01*
X151590476Y-92719047D01*
X151590476Y-92385714D01*
X151638095Y-92195238D01*
X151733333Y-92100000D01*
X151828571Y-92052380D01*
X152019047Y-92052380D01*
X152114285Y-92100000D01*
X152209523Y-92195238D01*
X152257142Y-92385714D01*
X152257142Y-92719047D01*
X152209523Y-92909523D01*
X152114285Y-93004761D01*
X152019047Y-93052380D01*
X151828571Y-93052380D01*
X153209523Y-93052380D02*
X152638095Y-93052380D01*
X152923809Y-93052380D02*
X152923809Y-92052380D01*
X152828571Y-92195238D01*
X152733333Y-92290476D01*
X152638095Y-92338095D01*
X165083333Y-117452380D02*
X164750000Y-116976190D01*
X164511904Y-117452380D02*
X164511904Y-116452380D01*
X164892857Y-116452380D01*
X164988095Y-116500000D01*
X165035714Y-116547619D01*
X165083333Y-116642857D01*
X165083333Y-116785714D01*
X165035714Y-116880952D01*
X164988095Y-116928571D01*
X164892857Y-116976190D01*
X164511904Y-116976190D01*
X165988095Y-116452380D02*
X165511904Y-116452380D01*
X165464285Y-116928571D01*
X165511904Y-116880952D01*
X165607142Y-116833333D01*
X165845238Y-116833333D01*
X165940476Y-116880952D01*
X165988095Y-116928571D01*
X166035714Y-117023809D01*
X166035714Y-117261904D01*
X165988095Y-117357142D01*
X165940476Y-117404761D01*
X165845238Y-117452380D01*
X165607142Y-117452380D01*
X165511904Y-117404761D01*
X165464285Y-117357142D01*
X191107142Y-117202380D02*
X190773809Y-116726190D01*
X190535714Y-117202380D02*
X190535714Y-116202380D01*
X190916666Y-116202380D01*
X191011904Y-116250000D01*
X191059523Y-116297619D01*
X191107142Y-116392857D01*
X191107142Y-116535714D01*
X191059523Y-116630952D01*
X191011904Y-116678571D01*
X190916666Y-116726190D01*
X190535714Y-116726190D01*
X192059523Y-117202380D02*
X191488095Y-117202380D01*
X191773809Y-117202380D02*
X191773809Y-116202380D01*
X191678571Y-116345238D01*
X191583333Y-116440476D01*
X191488095Y-116488095D01*
X192678571Y-116202380D02*
X192773809Y-116202380D01*
X192869047Y-116250000D01*
X192916666Y-116297619D01*
X192964285Y-116392857D01*
X193011904Y-116583333D01*
X193011904Y-116821428D01*
X192964285Y-117011904D01*
X192916666Y-117107142D01*
X192869047Y-117154761D01*
X192773809Y-117202380D01*
X192678571Y-117202380D01*
X192583333Y-117154761D01*
X192535714Y-117107142D01*
X192488095Y-117011904D01*
X192440476Y-116821428D01*
X192440476Y-116583333D01*
X192488095Y-116392857D01*
X192535714Y-116297619D01*
X192583333Y-116250000D01*
X192678571Y-116202380D01*
X211107142Y-85857142D02*
X211059523Y-85904761D01*
X210916666Y-85952380D01*
X210821428Y-85952380D01*
X210678571Y-85904761D01*
X210583333Y-85809523D01*
X210535714Y-85714285D01*
X210488095Y-85523809D01*
X210488095Y-85380952D01*
X210535714Y-85190476D01*
X210583333Y-85095238D01*
X210678571Y-85000000D01*
X210821428Y-84952380D01*
X210916666Y-84952380D01*
X211059523Y-85000000D01*
X211107142Y-85047619D01*
X212059523Y-85952380D02*
X211488095Y-85952380D01*
X211773809Y-85952380D02*
X211773809Y-84952380D01*
X211678571Y-85095238D01*
X211583333Y-85190476D01*
X211488095Y-85238095D01*
X213011904Y-85952380D02*
X212440476Y-85952380D01*
X212726190Y-85952380D02*
X212726190Y-84952380D01*
X212630952Y-85095238D01*
X212535714Y-85190476D01*
X212440476Y-85238095D01*
X213357142Y-97262380D02*
X213023809Y-96786190D01*
X212785714Y-97262380D02*
X212785714Y-96262380D01*
X213166666Y-96262380D01*
X213261904Y-96310000D01*
X213309523Y-96357619D01*
X213357142Y-96452857D01*
X213357142Y-96595714D01*
X213309523Y-96690952D01*
X213261904Y-96738571D01*
X213166666Y-96786190D01*
X212785714Y-96786190D01*
X214309523Y-97262380D02*
X213738095Y-97262380D01*
X214023809Y-97262380D02*
X214023809Y-96262380D01*
X213928571Y-96405238D01*
X213833333Y-96500476D01*
X213738095Y-96548095D01*
X214642857Y-96262380D02*
X215261904Y-96262380D01*
X214928571Y-96643333D01*
X215071428Y-96643333D01*
X215166666Y-96690952D01*
X215214285Y-96738571D01*
X215261904Y-96833809D01*
X215261904Y-97071904D01*
X215214285Y-97167142D01*
X215166666Y-97214761D01*
X215071428Y-97262380D01*
X214785714Y-97262380D01*
X214690476Y-97214761D01*
X214642857Y-97167142D01*
X209357142Y-97202380D02*
X209023809Y-96726190D01*
X208785714Y-97202380D02*
X208785714Y-96202380D01*
X209166666Y-96202380D01*
X209261904Y-96250000D01*
X209309523Y-96297619D01*
X209357142Y-96392857D01*
X209357142Y-96535714D01*
X209309523Y-96630952D01*
X209261904Y-96678571D01*
X209166666Y-96726190D01*
X208785714Y-96726190D01*
X210309523Y-97202380D02*
X209738095Y-97202380D01*
X210023809Y-97202380D02*
X210023809Y-96202380D01*
X209928571Y-96345238D01*
X209833333Y-96440476D01*
X209738095Y-96488095D01*
X211261904Y-97202380D02*
X210690476Y-97202380D01*
X210976190Y-97202380D02*
X210976190Y-96202380D01*
X210880952Y-96345238D01*
X210785714Y-96440476D01*
X210690476Y-96488095D01*
X204083333Y-82357142D02*
X204035714Y-82404761D01*
X203892857Y-82452380D01*
X203797619Y-82452380D01*
X203654761Y-82404761D01*
X203559523Y-82309523D01*
X203511904Y-82214285D01*
X203464285Y-82023809D01*
X203464285Y-81880952D01*
X203511904Y-81690476D01*
X203559523Y-81595238D01*
X203654761Y-81500000D01*
X203797619Y-81452380D01*
X203892857Y-81452380D01*
X204035714Y-81500000D01*
X204083333Y-81547619D01*
X204559523Y-82452380D02*
X204750000Y-82452380D01*
X204845238Y-82404761D01*
X204892857Y-82357142D01*
X204988095Y-82214285D01*
X205035714Y-82023809D01*
X205035714Y-81642857D01*
X204988095Y-81547619D01*
X204940476Y-81500000D01*
X204845238Y-81452380D01*
X204654761Y-81452380D01*
X204559523Y-81500000D01*
X204511904Y-81547619D01*
X204464285Y-81642857D01*
X204464285Y-81880952D01*
X204511904Y-81976190D01*
X204559523Y-82023809D01*
X204654761Y-82071428D01*
X204845238Y-82071428D01*
X204940476Y-82023809D01*
X204988095Y-81976190D01*
X205035714Y-81880952D01*
X175833333Y-98832380D02*
X175500000Y-98356190D01*
X175261904Y-98832380D02*
X175261904Y-97832380D01*
X175642857Y-97832380D01*
X175738095Y-97880000D01*
X175785714Y-97927619D01*
X175833333Y-98022857D01*
X175833333Y-98165714D01*
X175785714Y-98260952D01*
X175738095Y-98308571D01*
X175642857Y-98356190D01*
X175261904Y-98356190D01*
X176404761Y-98260952D02*
X176309523Y-98213333D01*
X176261904Y-98165714D01*
X176214285Y-98070476D01*
X176214285Y-98022857D01*
X176261904Y-97927619D01*
X176309523Y-97880000D01*
X176404761Y-97832380D01*
X176595238Y-97832380D01*
X176690476Y-97880000D01*
X176738095Y-97927619D01*
X176785714Y-98022857D01*
X176785714Y-98070476D01*
X176738095Y-98165714D01*
X176690476Y-98213333D01*
X176595238Y-98260952D01*
X176404761Y-98260952D01*
X176309523Y-98308571D01*
X176261904Y-98356190D01*
X176214285Y-98451428D01*
X176214285Y-98641904D01*
X176261904Y-98737142D01*
X176309523Y-98784761D01*
X176404761Y-98832380D01*
X176595238Y-98832380D01*
X176690476Y-98784761D01*
X176738095Y-98737142D01*
X176785714Y-98641904D01*
X176785714Y-98451428D01*
X176738095Y-98356190D01*
X176690476Y-98308571D01*
X176595238Y-98260952D01*
X203107142Y-92082380D02*
X202773809Y-91606190D01*
X202535714Y-92082380D02*
X202535714Y-91082380D01*
X202916666Y-91082380D01*
X203011904Y-91130000D01*
X203059523Y-91177619D01*
X203107142Y-91272857D01*
X203107142Y-91415714D01*
X203059523Y-91510952D01*
X203011904Y-91558571D01*
X202916666Y-91606190D01*
X202535714Y-91606190D01*
X204059523Y-92082380D02*
X203488095Y-92082380D01*
X203773809Y-92082380D02*
X203773809Y-91082380D01*
X203678571Y-91225238D01*
X203583333Y-91320476D01*
X203488095Y-91368095D01*
X204964285Y-91082380D02*
X204488095Y-91082380D01*
X204440476Y-91558571D01*
X204488095Y-91510952D01*
X204583333Y-91463333D01*
X204821428Y-91463333D01*
X204916666Y-91510952D01*
X204964285Y-91558571D01*
X205011904Y-91653809D01*
X205011904Y-91891904D01*
X204964285Y-91987142D01*
X204916666Y-92034761D01*
X204821428Y-92082380D01*
X204583333Y-92082380D01*
X204488095Y-92034761D01*
X204440476Y-91987142D01*
X192333333Y-101957142D02*
X192285714Y-102004761D01*
X192142857Y-102052380D01*
X192047619Y-102052380D01*
X191904761Y-102004761D01*
X191809523Y-101909523D01*
X191761904Y-101814285D01*
X191714285Y-101623809D01*
X191714285Y-101480952D01*
X191761904Y-101290476D01*
X191809523Y-101195238D01*
X191904761Y-101100000D01*
X192047619Y-101052380D01*
X192142857Y-101052380D01*
X192285714Y-101100000D01*
X192333333Y-101147619D01*
X192904761Y-101480952D02*
X192809523Y-101433333D01*
X192761904Y-101385714D01*
X192714285Y-101290476D01*
X192714285Y-101242857D01*
X192761904Y-101147619D01*
X192809523Y-101100000D01*
X192904761Y-101052380D01*
X193095238Y-101052380D01*
X193190476Y-101100000D01*
X193238095Y-101147619D01*
X193285714Y-101242857D01*
X193285714Y-101290476D01*
X193238095Y-101385714D01*
X193190476Y-101433333D01*
X193095238Y-101480952D01*
X192904761Y-101480952D01*
X192809523Y-101528571D01*
X192761904Y-101576190D01*
X192714285Y-101671428D01*
X192714285Y-101861904D01*
X192761904Y-101957142D01*
X192809523Y-102004761D01*
X192904761Y-102052380D01*
X193095238Y-102052380D01*
X193190476Y-102004761D01*
X193238095Y-101957142D01*
X193285714Y-101861904D01*
X193285714Y-101671428D01*
X193238095Y-101576190D01*
X193190476Y-101528571D01*
X193095238Y-101480952D01*
X203107142Y-109202380D02*
X202773809Y-108726190D01*
X202535714Y-109202380D02*
X202535714Y-108202380D01*
X202916666Y-108202380D01*
X203011904Y-108250000D01*
X203059523Y-108297619D01*
X203107142Y-108392857D01*
X203107142Y-108535714D01*
X203059523Y-108630952D01*
X203011904Y-108678571D01*
X202916666Y-108726190D01*
X202535714Y-108726190D01*
X204059523Y-109202380D02*
X203488095Y-109202380D01*
X203773809Y-109202380D02*
X203773809Y-108202380D01*
X203678571Y-108345238D01*
X203583333Y-108440476D01*
X203488095Y-108488095D01*
X204440476Y-108297619D02*
X204488095Y-108250000D01*
X204583333Y-108202380D01*
X204821428Y-108202380D01*
X204916666Y-108250000D01*
X204964285Y-108297619D01*
X205011904Y-108392857D01*
X205011904Y-108488095D01*
X204964285Y-108630952D01*
X204392857Y-109202380D01*
X205011904Y-109202380D01*
X163390952Y-82252380D02*
X163581428Y-82252380D01*
X163676666Y-82204761D01*
X163724285Y-82157142D01*
X163819523Y-82014285D01*
X163867142Y-81823809D01*
X163867142Y-81442857D01*
X163819523Y-81347619D01*
X163771904Y-81300000D01*
X163676666Y-81252380D01*
X163486190Y-81252380D01*
X163390952Y-81300000D01*
X163343333Y-81347619D01*
X163295714Y-81442857D01*
X163295714Y-81680952D01*
X163343333Y-81776190D01*
X163390952Y-81823809D01*
X163486190Y-81871428D01*
X163676666Y-81871428D01*
X163771904Y-81823809D01*
X163819523Y-81776190D01*
X163867142Y-81680952D01*
X164152857Y-81252380D02*
X164486190Y-82252380D01*
X164819523Y-81252380D01*
X159166666Y-80652380D02*
X159785714Y-80652380D01*
X159452380Y-81033333D01*
X159595238Y-81033333D01*
X159690476Y-81080952D01*
X159738095Y-81128571D01*
X159785714Y-81223809D01*
X159785714Y-81461904D01*
X159738095Y-81557142D01*
X159690476Y-81604761D01*
X159595238Y-81652380D01*
X159309523Y-81652380D01*
X159214285Y-81604761D01*
X159166666Y-81557142D01*
X160214285Y-81652380D02*
X160214285Y-80652380D01*
X160452380Y-80652380D01*
X160595238Y-80700000D01*
X160690476Y-80795238D01*
X160738095Y-80890476D01*
X160785714Y-81080952D01*
X160785714Y-81223809D01*
X160738095Y-81414285D01*
X160690476Y-81509523D01*
X160595238Y-81604761D01*
X160452380Y-81652380D01*
X160214285Y-81652380D01*
X179904761Y-81652380D02*
X179333333Y-81652380D01*
X179619047Y-81652380D02*
X179619047Y-80652380D01*
X179523809Y-80795238D01*
X179428571Y-80890476D01*
X179333333Y-80938095D01*
X180190476Y-80652380D02*
X180761904Y-80652380D01*
X180476190Y-81652380D02*
X180476190Y-80652380D01*
X199715422Y-82357142D02*
X199667803Y-82404761D01*
X199524946Y-82452380D01*
X199429708Y-82452380D01*
X199286851Y-82404761D01*
X199191613Y-82309523D01*
X199143994Y-82214285D01*
X199096375Y-82023809D01*
X199096375Y-81880952D01*
X199143994Y-81690476D01*
X199191613Y-81595238D01*
X199286851Y-81500000D01*
X199429708Y-81452380D01*
X199524946Y-81452380D01*
X199667803Y-81500000D01*
X199715422Y-81547619D01*
X200667803Y-82452380D02*
X200096375Y-82452380D01*
X200382089Y-82452380D02*
X200382089Y-81452380D01*
X200286851Y-81595238D01*
X200191613Y-81690476D01*
X200096375Y-81738095D01*
X201286851Y-81452380D02*
X201382089Y-81452380D01*
X201477327Y-81500000D01*
X201524946Y-81547619D01*
X201572565Y-81642857D01*
X201620184Y-81833333D01*
X201620184Y-82071428D01*
X201572565Y-82261904D01*
X201524946Y-82357142D01*
X201477327Y-82404761D01*
X201382089Y-82452380D01*
X201286851Y-82452380D01*
X201191613Y-82404761D01*
X201143994Y-82357142D01*
X201096375Y-82261904D01*
X201048756Y-82071428D01*
X201048756Y-81833333D01*
X201096375Y-81642857D01*
X201143994Y-81547619D01*
X201191613Y-81500000D01*
X201286851Y-81452380D01*
X190738095Y-81652380D02*
X190261904Y-81652380D01*
X190261904Y-80652380D01*
X191071428Y-81128571D02*
X191404761Y-81128571D01*
X191547619Y-81652380D02*
X191071428Y-81652380D01*
X191071428Y-80652380D01*
X191547619Y-80652380D01*
X191976190Y-81652380D02*
X191976190Y-80652380D01*
X192214285Y-80652380D01*
X192357142Y-80700000D01*
X192452380Y-80795238D01*
X192500000Y-80890476D01*
X192547619Y-81080952D01*
X192547619Y-81223809D01*
X192500000Y-81414285D01*
X192452380Y-81509523D01*
X192357142Y-81604761D01*
X192214285Y-81652380D01*
X191976190Y-81652380D01*
X192976190Y-81271428D02*
X193738095Y-81271428D01*
X193357142Y-81652380D02*
X193357142Y-80890476D01*
X213000000Y-80652380D02*
X213190476Y-80652380D01*
X213285714Y-80700000D01*
X213380952Y-80795238D01*
X213428571Y-80985714D01*
X213428571Y-81319047D01*
X213380952Y-81509523D01*
X213285714Y-81604761D01*
X213190476Y-81652380D01*
X213000000Y-81652380D01*
X212904761Y-81604761D01*
X212809523Y-81509523D01*
X212761904Y-81319047D01*
X212761904Y-80985714D01*
X212809523Y-80795238D01*
X212904761Y-80700000D01*
X213000000Y-80652380D01*
X213857142Y-80652380D02*
X213857142Y-81461904D01*
X213904761Y-81557142D01*
X213952380Y-81604761D01*
X214047619Y-81652380D01*
X214238095Y-81652380D01*
X214333333Y-81604761D01*
X214380952Y-81557142D01*
X214428571Y-81461904D01*
X214428571Y-80652380D01*
X214761904Y-80652380D02*
X215333333Y-80652380D01*
X215047619Y-81652380D02*
X215047619Y-80652380D01*
X183285714Y-80652380D02*
X183904761Y-80652380D01*
X183571428Y-81033333D01*
X183714285Y-81033333D01*
X183809523Y-81080952D01*
X183857142Y-81128571D01*
X183904761Y-81223809D01*
X183904761Y-81461904D01*
X183857142Y-81557142D01*
X183809523Y-81604761D01*
X183714285Y-81652380D01*
X183428571Y-81652380D01*
X183333333Y-81604761D01*
X183285714Y-81557142D01*
X184190476Y-80652380D02*
X184761904Y-80652380D01*
X184476190Y-81652380D02*
X184476190Y-80652380D01*
X178536904Y-89702380D02*
X178536904Y-88702380D01*
X178775000Y-88702380D01*
X178917857Y-88750000D01*
X179013095Y-88845238D01*
X179060714Y-88940476D01*
X179108333Y-89130952D01*
X179108333Y-89273809D01*
X179060714Y-89464285D01*
X179013095Y-89559523D01*
X178917857Y-89654761D01*
X178775000Y-89702380D01*
X178536904Y-89702380D01*
X179441666Y-88702380D02*
X180108333Y-88702380D01*
X179679761Y-89702380D01*
X160083333Y-93452380D02*
X160083333Y-92452380D01*
X160321428Y-92452380D01*
X160464285Y-92500000D01*
X160559523Y-92595238D01*
X160607142Y-92690476D01*
X160654761Y-92880952D01*
X160654761Y-93023809D01*
X160607142Y-93214285D01*
X160559523Y-93309523D01*
X160464285Y-93404761D01*
X160321428Y-93452380D01*
X160083333Y-93452380D01*
X161035714Y-92547619D02*
X161083333Y-92500000D01*
X161178571Y-92452380D01*
X161416666Y-92452380D01*
X161511904Y-92500000D01*
X161559523Y-92547619D01*
X161607142Y-92642857D01*
X161607142Y-92738095D01*
X161559523Y-92880952D01*
X160988095Y-93452380D01*
X161607142Y-93452380D01*
X161988095Y-93166666D02*
X162464285Y-93166666D01*
X161892857Y-93452380D02*
X162226190Y-92452380D01*
X162559523Y-93452380D01*
X189957142Y-87052380D02*
X189623809Y-86576190D01*
X189385714Y-87052380D02*
X189385714Y-86052380D01*
X189766666Y-86052380D01*
X189861904Y-86100000D01*
X189909523Y-86147619D01*
X189957142Y-86242857D01*
X189957142Y-86385714D01*
X189909523Y-86480952D01*
X189861904Y-86528571D01*
X189766666Y-86576190D01*
X189385714Y-86576190D01*
X190338095Y-86147619D02*
X190385714Y-86100000D01*
X190480952Y-86052380D01*
X190719047Y-86052380D01*
X190814285Y-86100000D01*
X190861904Y-86147619D01*
X190909523Y-86242857D01*
X190909523Y-86338095D01*
X190861904Y-86480952D01*
X190290476Y-87052380D01*
X190909523Y-87052380D01*
X191242857Y-86052380D02*
X191861904Y-86052380D01*
X191528571Y-86433333D01*
X191671428Y-86433333D01*
X191766666Y-86480952D01*
X191814285Y-86528571D01*
X191861904Y-86623809D01*
X191861904Y-86861904D01*
X191814285Y-86957142D01*
X191766666Y-87004761D01*
X191671428Y-87052380D01*
X191385714Y-87052380D01*
X191290476Y-87004761D01*
X191242857Y-86957142D01*
X195985714Y-80747619D02*
X196033333Y-80700000D01*
X196128571Y-80652380D01*
X196366666Y-80652380D01*
X196461904Y-80700000D01*
X196509523Y-80747619D01*
X196557142Y-80842857D01*
X196557142Y-80938095D01*
X196509523Y-81080952D01*
X195938095Y-81652380D01*
X196557142Y-81652380D01*
X196842857Y-80652380D02*
X197176190Y-81652380D01*
X197509523Y-80652380D01*
X154833333Y-107702380D02*
X154500000Y-107226190D01*
X154261904Y-107702380D02*
X154261904Y-106702380D01*
X154642857Y-106702380D01*
X154738095Y-106750000D01*
X154785714Y-106797619D01*
X154833333Y-106892857D01*
X154833333Y-107035714D01*
X154785714Y-107130952D01*
X154738095Y-107178571D01*
X154642857Y-107226190D01*
X154261904Y-107226190D01*
X155166666Y-106702380D02*
X155785714Y-106702380D01*
X155452380Y-107083333D01*
X155595238Y-107083333D01*
X155690476Y-107130952D01*
X155738095Y-107178571D01*
X155785714Y-107273809D01*
X155785714Y-107511904D01*
X155738095Y-107607142D01*
X155690476Y-107654761D01*
X155595238Y-107702380D01*
X155309523Y-107702380D01*
X155214285Y-107654761D01*
X155166666Y-107607142D01*
X162011904Y-95932380D02*
X162011904Y-94932380D01*
X162250000Y-94932380D01*
X162392857Y-94980000D01*
X162488095Y-95075238D01*
X162535714Y-95170476D01*
X162583333Y-95360952D01*
X162583333Y-95503809D01*
X162535714Y-95694285D01*
X162488095Y-95789523D01*
X162392857Y-95884761D01*
X162250000Y-95932380D01*
X162011904Y-95932380D01*
X162964285Y-95027619D02*
X163011904Y-94980000D01*
X163107142Y-94932380D01*
X163345238Y-94932380D01*
X163440476Y-94980000D01*
X163488095Y-95027619D01*
X163535714Y-95122857D01*
X163535714Y-95218095D01*
X163488095Y-95360952D01*
X162916666Y-95932380D01*
X163535714Y-95932380D01*
X173417142Y-122582380D02*
X173083809Y-122106190D01*
X172845714Y-122582380D02*
X172845714Y-121582380D01*
X173226666Y-121582380D01*
X173321904Y-121630000D01*
X173369523Y-121677619D01*
X173417142Y-121772857D01*
X173417142Y-121915714D01*
X173369523Y-122010952D01*
X173321904Y-122058571D01*
X173226666Y-122106190D01*
X172845714Y-122106190D01*
X174369523Y-122582380D02*
X173798095Y-122582380D01*
X174083809Y-122582380D02*
X174083809Y-121582380D01*
X173988571Y-121725238D01*
X173893333Y-121820476D01*
X173798095Y-121868095D01*
X175226666Y-121582380D02*
X175036190Y-121582380D01*
X174940952Y-121630000D01*
X174893333Y-121677619D01*
X174798095Y-121820476D01*
X174750476Y-122010952D01*
X174750476Y-122391904D01*
X174798095Y-122487142D01*
X174845714Y-122534761D01*
X174940952Y-122582380D01*
X175131428Y-122582380D01*
X175226666Y-122534761D01*
X175274285Y-122487142D01*
X175321904Y-122391904D01*
X175321904Y-122153809D01*
X175274285Y-122058571D01*
X175226666Y-122010952D01*
X175131428Y-121963333D01*
X174940952Y-121963333D01*
X174845714Y-122010952D01*
X174798095Y-122058571D01*
X174750476Y-122153809D01*
X198583333Y-109202380D02*
X198250000Y-108726190D01*
X198011904Y-109202380D02*
X198011904Y-108202380D01*
X198392857Y-108202380D01*
X198488095Y-108250000D01*
X198535714Y-108297619D01*
X198583333Y-108392857D01*
X198583333Y-108535714D01*
X198535714Y-108630952D01*
X198488095Y-108678571D01*
X198392857Y-108726190D01*
X198011904Y-108726190D01*
X199059523Y-109202380D02*
X199250000Y-109202380D01*
X199345238Y-109154761D01*
X199392857Y-109107142D01*
X199488095Y-108964285D01*
X199535714Y-108773809D01*
X199535714Y-108392857D01*
X199488095Y-108297619D01*
X199440476Y-108250000D01*
X199345238Y-108202380D01*
X199154761Y-108202380D01*
X199059523Y-108250000D01*
X199011904Y-108297619D01*
X198964285Y-108392857D01*
X198964285Y-108630952D01*
X199011904Y-108726190D01*
X199059523Y-108773809D01*
X199154761Y-108821428D01*
X199345238Y-108821428D01*
X199440476Y-108773809D01*
X199488095Y-108726190D01*
X199535714Y-108630952D01*
X169261904Y-93452380D02*
X169261904Y-92452380D01*
X169500000Y-92452380D01*
X169642857Y-92500000D01*
X169738095Y-92595238D01*
X169785714Y-92690476D01*
X169833333Y-92880952D01*
X169833333Y-93023809D01*
X169785714Y-93214285D01*
X169738095Y-93309523D01*
X169642857Y-93404761D01*
X169500000Y-93452380D01*
X169261904Y-93452380D01*
X170214285Y-92547619D02*
X170261904Y-92500000D01*
X170357142Y-92452380D01*
X170595238Y-92452380D01*
X170690476Y-92500000D01*
X170738095Y-92547619D01*
X170785714Y-92642857D01*
X170785714Y-92738095D01*
X170738095Y-92880952D01*
X170166666Y-93452380D01*
X170785714Y-93452380D01*
X171547619Y-92928571D02*
X171690476Y-92976190D01*
X171738095Y-93023809D01*
X171785714Y-93119047D01*
X171785714Y-93261904D01*
X171738095Y-93357142D01*
X171690476Y-93404761D01*
X171595238Y-93452380D01*
X171214285Y-93452380D01*
X171214285Y-92452380D01*
X171547619Y-92452380D01*
X171642857Y-92500000D01*
X171690476Y-92547619D01*
X171738095Y-92642857D01*
X171738095Y-92738095D01*
X171690476Y-92833333D01*
X171642857Y-92880952D01*
X171547619Y-92928571D01*
X171214285Y-92928571D01*
X146583333Y-92857142D02*
X146535714Y-92904761D01*
X146392857Y-92952380D01*
X146297619Y-92952380D01*
X146154761Y-92904761D01*
X146059523Y-92809523D01*
X146011904Y-92714285D01*
X145964285Y-92523809D01*
X145964285Y-92380952D01*
X146011904Y-92190476D01*
X146059523Y-92095238D01*
X146154761Y-92000000D01*
X146297619Y-91952380D01*
X146392857Y-91952380D01*
X146535714Y-92000000D01*
X146583333Y-92047619D01*
X147535714Y-92952380D02*
X146964285Y-92952380D01*
X147250000Y-92952380D02*
X147250000Y-91952380D01*
X147154761Y-92095238D01*
X147059523Y-92190476D01*
X146964285Y-92238095D01*
X186557142Y-94802380D02*
X186223809Y-94326190D01*
X185985714Y-94802380D02*
X185985714Y-93802380D01*
X186366666Y-93802380D01*
X186461904Y-93850000D01*
X186509523Y-93897619D01*
X186557142Y-93992857D01*
X186557142Y-94135714D01*
X186509523Y-94230952D01*
X186461904Y-94278571D01*
X186366666Y-94326190D01*
X185985714Y-94326190D01*
X187509523Y-94802380D02*
X186938095Y-94802380D01*
X187223809Y-94802380D02*
X187223809Y-93802380D01*
X187128571Y-93945238D01*
X187033333Y-94040476D01*
X186938095Y-94088095D01*
X188080952Y-94230952D02*
X187985714Y-94183333D01*
X187938095Y-94135714D01*
X187890476Y-94040476D01*
X187890476Y-93992857D01*
X187938095Y-93897619D01*
X187985714Y-93850000D01*
X188080952Y-93802380D01*
X188271428Y-93802380D01*
X188366666Y-93850000D01*
X188414285Y-93897619D01*
X188461904Y-93992857D01*
X188461904Y-94040476D01*
X188414285Y-94135714D01*
X188366666Y-94183333D01*
X188271428Y-94230952D01*
X188080952Y-94230952D01*
X187985714Y-94278571D01*
X187938095Y-94326190D01*
X187890476Y-94421428D01*
X187890476Y-94611904D01*
X187938095Y-94707142D01*
X187985714Y-94754761D01*
X188080952Y-94802380D01*
X188271428Y-94802380D01*
X188366666Y-94754761D01*
X188414285Y-94707142D01*
X188461904Y-94611904D01*
X188461904Y-94421428D01*
X188414285Y-94326190D01*
X188366666Y-94278571D01*
X188271428Y-94230952D01*
D10*
X176532380Y-103804523D02*
X176532380Y-104832619D01*
X176592857Y-104953571D01*
X176653333Y-105014047D01*
X176774285Y-105074523D01*
X177016190Y-105074523D01*
X177137142Y-105014047D01*
X177197619Y-104953571D01*
X177258095Y-104832619D01*
X177258095Y-103804523D01*
X178528095Y-105074523D02*
X177802380Y-105074523D01*
X178165238Y-105074523D02*
X178165238Y-103804523D01*
X178044285Y-103985952D01*
X177923333Y-104106904D01*
X177802380Y-104167380D01*
D12*
X212238095Y-117252000D02*
X212142857Y-117204380D01*
X212000000Y-117204380D01*
X211857142Y-117252000D01*
X211761904Y-117347238D01*
X211714285Y-117442476D01*
X211666666Y-117632952D01*
X211666666Y-117775809D01*
X211714285Y-117966285D01*
X211761904Y-118061523D01*
X211857142Y-118156761D01*
X212000000Y-118204380D01*
X212095238Y-118204380D01*
X212238095Y-118156761D01*
X212285714Y-118109142D01*
X212285714Y-117775809D01*
X212095238Y-117775809D01*
X212714285Y-118204380D02*
X212714285Y-117204380D01*
X213285714Y-118204380D01*
X213285714Y-117204380D01*
X213761904Y-118204380D02*
X213761904Y-117204380D01*
X214000000Y-117204380D01*
X214142857Y-117252000D01*
X214238095Y-117347238D01*
X214285714Y-117442476D01*
X214333333Y-117632952D01*
X214333333Y-117775809D01*
X214285714Y-117966285D01*
X214238095Y-118061523D01*
X214142857Y-118156761D01*
X214000000Y-118204380D01*
X213761904Y-118204380D01*
X183083333Y-119357142D02*
X183035714Y-119404761D01*
X182892857Y-119452380D01*
X182797619Y-119452380D01*
X182654761Y-119404761D01*
X182559523Y-119309523D01*
X182511904Y-119214285D01*
X182464285Y-119023809D01*
X182464285Y-118880952D01*
X182511904Y-118690476D01*
X182559523Y-118595238D01*
X182654761Y-118500000D01*
X182797619Y-118452380D01*
X182892857Y-118452380D01*
X183035714Y-118500000D01*
X183083333Y-118547619D01*
X183988095Y-118452380D02*
X183511904Y-118452380D01*
X183464285Y-118928571D01*
X183511904Y-118880952D01*
X183607142Y-118833333D01*
X183845238Y-118833333D01*
X183940476Y-118880952D01*
X183988095Y-118928571D01*
X184035714Y-119023809D01*
X184035714Y-119261904D01*
X183988095Y-119357142D01*
X183940476Y-119404761D01*
X183845238Y-119452380D01*
X183607142Y-119452380D01*
X183511904Y-119404761D01*
X183464285Y-119357142D01*
X212238095Y-122002000D02*
X212142857Y-121954380D01*
X212000000Y-121954380D01*
X211857142Y-122002000D01*
X211761904Y-122097238D01*
X211714285Y-122192476D01*
X211666666Y-122382952D01*
X211666666Y-122525809D01*
X211714285Y-122716285D01*
X211761904Y-122811523D01*
X211857142Y-122906761D01*
X212000000Y-122954380D01*
X212095238Y-122954380D01*
X212238095Y-122906761D01*
X212285714Y-122859142D01*
X212285714Y-122525809D01*
X212095238Y-122525809D01*
X212714285Y-122954380D02*
X212714285Y-121954380D01*
X213285714Y-122954380D01*
X213285714Y-121954380D01*
X213761904Y-122954380D02*
X213761904Y-121954380D01*
X214000000Y-121954380D01*
X214142857Y-122002000D01*
X214238095Y-122097238D01*
X214285714Y-122192476D01*
X214333333Y-122382952D01*
X214333333Y-122525809D01*
X214285714Y-122716285D01*
X214238095Y-122811523D01*
X214142857Y-122906761D01*
X214000000Y-122954380D01*
X213761904Y-122954380D01*
X178536904Y-95452380D02*
X178536904Y-94452380D01*
X178775000Y-94452380D01*
X178917857Y-94500000D01*
X179013095Y-94595238D01*
X179060714Y-94690476D01*
X179108333Y-94880952D01*
X179108333Y-95023809D01*
X179060714Y-95214285D01*
X179013095Y-95309523D01*
X178917857Y-95404761D01*
X178775000Y-95452380D01*
X178536904Y-95452380D01*
X179965476Y-94452380D02*
X179775000Y-94452380D01*
X179679761Y-94500000D01*
X179632142Y-94547619D01*
X179536904Y-94690476D01*
X179489285Y-94880952D01*
X179489285Y-95261904D01*
X179536904Y-95357142D01*
X179584523Y-95404761D01*
X179679761Y-95452380D01*
X179870238Y-95452380D01*
X179965476Y-95404761D01*
X180013095Y-95357142D01*
X180060714Y-95261904D01*
X180060714Y-95023809D01*
X180013095Y-94928571D01*
X179965476Y-94880952D01*
X179870238Y-94833333D01*
X179679761Y-94833333D01*
X179584523Y-94880952D01*
X179536904Y-94928571D01*
X179489285Y-95023809D01*
X195504761Y-87547619D02*
X195409523Y-87500000D01*
X195314285Y-87404761D01*
X195171428Y-87261904D01*
X195076190Y-87214285D01*
X194980952Y-87214285D01*
X195028571Y-87452380D02*
X194933333Y-87404761D01*
X194838095Y-87309523D01*
X194790476Y-87119047D01*
X194790476Y-86785714D01*
X194838095Y-86595238D01*
X194933333Y-86500000D01*
X195028571Y-86452380D01*
X195219047Y-86452380D01*
X195314285Y-86500000D01*
X195409523Y-86595238D01*
X195457142Y-86785714D01*
X195457142Y-87119047D01*
X195409523Y-87309523D01*
X195314285Y-87404761D01*
X195219047Y-87452380D01*
X195028571Y-87452380D01*
X195838095Y-86547619D02*
X195885714Y-86500000D01*
X195980952Y-86452380D01*
X196219047Y-86452380D01*
X196314285Y-86500000D01*
X196361904Y-86547619D01*
X196409523Y-86642857D01*
X196409523Y-86738095D01*
X196361904Y-86880952D01*
X195790476Y-87452380D01*
X196409523Y-87452380D01*
X207833333Y-80747619D02*
X207880952Y-80700000D01*
X207976190Y-80652380D01*
X208214285Y-80652380D01*
X208309523Y-80700000D01*
X208357142Y-80747619D01*
X208404761Y-80842857D01*
X208404761Y-80938095D01*
X208357142Y-81080952D01*
X207785714Y-81652380D01*
X208404761Y-81652380D01*
X208690476Y-80652380D02*
X209261904Y-80652380D01*
X208976190Y-81652380D02*
X208976190Y-80652380D01*
G36*
X146632168Y-87532162D02*
G01*
X146631813Y-87425465D01*
X146631370Y-87329624D01*
X146630820Y-87243991D01*
X146630141Y-87167923D01*
X146629313Y-87100773D01*
X146628316Y-87041897D01*
X146627129Y-86990650D01*
X146625731Y-86946386D01*
X146624103Y-86908460D01*
X146622223Y-86876227D01*
X146620071Y-86849042D01*
X146617627Y-86826260D01*
X146614870Y-86807236D01*
X146611780Y-86791324D01*
X146608335Y-86777879D01*
X146604517Y-86766256D01*
X146600303Y-86755810D01*
X146595675Y-86745896D01*
X146590610Y-86735868D01*
X146585090Y-86725082D01*
X146579092Y-86712892D01*
X146578854Y-86712392D01*
X146545733Y-86654735D01*
X146506486Y-86610184D01*
X146459044Y-86577124D01*
X146401337Y-86553942D01*
X146363763Y-86544673D01*
X146316687Y-86535089D01*
X146310607Y-86439678D01*
X146308698Y-86401279D01*
X146307432Y-86358172D01*
X146306788Y-86313111D01*
X146306744Y-86268852D01*
X146307278Y-86228148D01*
X146308370Y-86193755D01*
X146309998Y-86168427D01*
X146312139Y-86154918D01*
X146312844Y-86153613D01*
X146320897Y-86153167D01*
X146343300Y-86152846D01*
X146379032Y-86152646D01*
X146427073Y-86152564D01*
X146486403Y-86152599D01*
X146556002Y-86152747D01*
X146634848Y-86153007D01*
X146721923Y-86153374D01*
X146816204Y-86153847D01*
X146916673Y-86154422D01*
X147022308Y-86155098D01*
X147108275Y-86155697D01*
X147237434Y-86156650D01*
X147352128Y-86157546D01*
X147453262Y-86158406D01*
X147541742Y-86159250D01*
X147618473Y-86160098D01*
X147684361Y-86160970D01*
X147740311Y-86161885D01*
X147787228Y-86162864D01*
X147826018Y-86163927D01*
X147857587Y-86165094D01*
X147882839Y-86166385D01*
X147902680Y-86167820D01*
X147918016Y-86169418D01*
X147929751Y-86171200D01*
X147938792Y-86173186D01*
X147942133Y-86174125D01*
X147971201Y-86182538D01*
X148007532Y-86192602D01*
X148043486Y-86202204D01*
X148045035Y-86202607D01*
X148080204Y-86213611D01*
X148121641Y-86229336D01*
X148162201Y-86246999D01*
X148175685Y-86253533D01*
X148231247Y-86286303D01*
X148285512Y-86328623D01*
X148340060Y-86381967D01*
X148396468Y-86447805D01*
X148428174Y-86488959D01*
X148452691Y-86522582D01*
X148472203Y-86551767D01*
X148488775Y-86580360D01*
X148504477Y-86612209D01*
X148521375Y-86651158D01*
X148539713Y-86696463D01*
X148561724Y-86754629D01*
X148579901Y-86809734D01*
X148595032Y-86865166D01*
X148607905Y-86924313D01*
X148619306Y-86990563D01*
X148630024Y-87067304D01*
X148634708Y-87105114D01*
X148638609Y-87148053D01*
X148641538Y-87201698D01*
X148643492Y-87262752D01*
X148644470Y-87327917D01*
X148644469Y-87393896D01*
X148643486Y-87457392D01*
X148641520Y-87515106D01*
X148638567Y-87563741D01*
X148635071Y-87596974D01*
X148612363Y-87727828D01*
X148582655Y-87851221D01*
X148546472Y-87965679D01*
X148504337Y-88069729D01*
X148456773Y-88161897D01*
X148408301Y-88235423D01*
X148335584Y-88320441D01*
X148251426Y-88397397D01*
X148158660Y-88463930D01*
X148082285Y-88507006D01*
X148057119Y-88520088D01*
X148043212Y-88529523D01*
X148037871Y-88538123D01*
X148038406Y-88548697D01*
X148039157Y-88552040D01*
X148045559Y-88573115D01*
X148051260Y-88586831D01*
X148056424Y-88598471D01*
X148066079Y-88621636D01*
X148079088Y-88653547D01*
X148094314Y-88691425D01*
X148104128Y-88716080D01*
X148121327Y-88758777D01*
X148138255Y-88799607D01*
X148153396Y-88834996D01*
X148165234Y-88861371D01*
X148169355Y-88869891D01*
X148178016Y-88888251D01*
X148191375Y-88918160D01*
X148208277Y-88956958D01*
X148227566Y-89001981D01*
X148248087Y-89050567D01*
X148256676Y-89071111D01*
X148277737Y-89121314D01*
X148298376Y-89169919D01*
X148317350Y-89214041D01*
X148333413Y-89250792D01*
X148345321Y-89277286D01*
X148348420Y-89283903D01*
X148359621Y-89308233D01*
X148376002Y-89345074D01*
X148396841Y-89392743D01*
X148421416Y-89449559D01*
X148449003Y-89513841D01*
X148478881Y-89583906D01*
X148510326Y-89658073D01*
X148542617Y-89734660D01*
X148564701Y-89787292D01*
X148600364Y-89870388D01*
X148632768Y-89941198D01*
X148663141Y-90002133D01*
X148692715Y-90055607D01*
X148722719Y-90104032D01*
X148737121Y-90125446D01*
X148760624Y-90160158D01*
X148784403Y-90196306D01*
X148804873Y-90228398D01*
X148813401Y-90242297D01*
X148840785Y-90281280D01*
X148872594Y-90315938D01*
X148905424Y-90343034D01*
X148935868Y-90359337D01*
X148937129Y-90359765D01*
X148956765Y-90370069D01*
X148966127Y-90387101D01*
X148967223Y-90391849D01*
X148969256Y-90409830D01*
X148970677Y-90438125D01*
X148971507Y-90473467D01*
X148971766Y-90512588D01*
X148971474Y-90552217D01*
X148970654Y-90589086D01*
X148969324Y-90619926D01*
X148967508Y-90641469D01*
X148965581Y-90650051D01*
X148960949Y-90652444D01*
X148949632Y-90654390D01*
X148930501Y-90655912D01*
X148902428Y-90657036D01*
X148864281Y-90657786D01*
X148814932Y-90658188D01*
X148753251Y-90658267D01*
X148678109Y-90658048D01*
X148617982Y-90657736D01*
X148276532Y-90655734D01*
X148178287Y-90413646D01*
X148152539Y-90350020D01*
X148126531Y-90285423D01*
X148101383Y-90222661D01*
X148078214Y-90164535D01*
X148058143Y-90113851D01*
X148042290Y-90073413D01*
X148037144Y-90060121D01*
X148020499Y-90017518D01*
X148003956Y-89976297D01*
X147989091Y-89940310D01*
X147977479Y-89913404D01*
X147974271Y-89906415D01*
X147966993Y-89889986D01*
X147954729Y-89861105D01*
X147938228Y-89821582D01*
X147918237Y-89773226D01*
X147895502Y-89717847D01*
X147870772Y-89657255D01*
X147844794Y-89593260D01*
X147837789Y-89575946D01*
X147809825Y-89506882D01*
X147781762Y-89437808D01*
X147752974Y-89367202D01*
X147722833Y-89293539D01*
X147690713Y-89215299D01*
X147655989Y-89130958D01*
X147618034Y-89038993D01*
X147576222Y-88937882D01*
X147529926Y-88826103D01*
X147478520Y-88702132D01*
X147461617Y-88661392D01*
X147444077Y-88619123D01*
X147391456Y-88614313D01*
X147357409Y-88611862D01*
X147318192Y-88610072D01*
X147277193Y-88608975D01*
X147237797Y-88608601D01*
X147203391Y-88608980D01*
X147177363Y-88610142D01*
X147163098Y-88612119D01*
X147162701Y-88612260D01*
X147160517Y-88614209D01*
X147158609Y-88618914D01*
X147156957Y-88627335D01*
X147155544Y-88640435D01*
X147154352Y-88659176D01*
X147153363Y-88684520D01*
X147152557Y-88717429D01*
X147151917Y-88758865D01*
X147151426Y-88809791D01*
X147151063Y-88871167D01*
X147150812Y-88943957D01*
X147150654Y-89029123D01*
X147150571Y-89127625D01*
X147150545Y-89240428D01*
X147150544Y-89254149D01*
X147150544Y-89891373D01*
X147170596Y-89973826D01*
X147192794Y-90048316D01*
X147220147Y-90111333D01*
X147252022Y-90161605D01*
X147279211Y-90190802D01*
X147302676Y-90208502D01*
X147334318Y-90228519D01*
X147368175Y-90247144D01*
X147376066Y-90251042D01*
X147407541Y-90267695D01*
X147436323Y-90285561D01*
X147457479Y-90301497D01*
X147461800Y-90305641D01*
X147484856Y-90330084D01*
X147487346Y-90492104D01*
X147488018Y-90548512D01*
X147488022Y-90591285D01*
X147487277Y-90622146D01*
X147485706Y-90642820D01*
X147483230Y-90655032D01*
X147479770Y-90660504D01*
X147479661Y-90660575D01*
X147466657Y-90663887D01*
X147444215Y-90665452D01*
X147427216Y-90665277D01*
X147412462Y-90664952D01*
X147383712Y-90664588D01*
X147342343Y-90664193D01*
X147289728Y-90663777D01*
X147227245Y-90663349D01*
X147156268Y-90662919D01*
X147078172Y-90662494D01*
X146994333Y-90662084D01*
X146906126Y-90661699D01*
X146855688Y-90661498D01*
X146326430Y-90659470D01*
X146329601Y-90480839D01*
X146331184Y-90414186D01*
X146333315Y-90360661D01*
X146335957Y-90320861D01*
X146339073Y-90295381D01*
X146341730Y-90285968D01*
X146357707Y-90271992D01*
X146382200Y-90265500D01*
X146436991Y-90250691D01*
X146489040Y-90222387D01*
X146536331Y-90182450D01*
X146576851Y-90132739D01*
X146608587Y-90075114D01*
X146619812Y-90046071D01*
X146635916Y-89998266D01*
X146633609Y-88436410D01*
X146633348Y-88251039D01*
X146633123Y-88080394D01*
X146632913Y-87923828D01*
X146632698Y-87780698D01*
X146632605Y-87730707D01*
X147143110Y-87730707D01*
X147143224Y-87818907D01*
X147143588Y-87895092D01*
X147144223Y-87960099D01*
X147145150Y-88014767D01*
X147146392Y-88059936D01*
X147147971Y-88096443D01*
X147149909Y-88125127D01*
X147152226Y-88146827D01*
X147154946Y-88162380D01*
X147158089Y-88172626D01*
X147161678Y-88178404D01*
X147164726Y-88180324D01*
X147175707Y-88181298D01*
X147199786Y-88181929D01*
X147234693Y-88182208D01*
X147278160Y-88182126D01*
X147327917Y-88181674D01*
X147365734Y-88181124D01*
X147427163Y-88179956D01*
X147476333Y-88178569D01*
X147516357Y-88176697D01*
X147550346Y-88174070D01*
X147581413Y-88170422D01*
X147612669Y-88165484D01*
X147647226Y-88158988D01*
X147665461Y-88155328D01*
X147709583Y-88145799D01*
X147752589Y-88135515D01*
X147790174Y-88125572D01*
X147818036Y-88117062D01*
X147823010Y-88115275D01*
X147868275Y-88091108D01*
X147912800Y-88054342D01*
X147954480Y-88007688D01*
X147991209Y-87953856D01*
X148020881Y-87895559D01*
X148041389Y-87835505D01*
X148041885Y-87833526D01*
X148059752Y-87757339D01*
X148073566Y-87688013D01*
X148083610Y-87622199D01*
X148090165Y-87556551D01*
X148093512Y-87487722D01*
X148093933Y-87412365D01*
X148091709Y-87327134D01*
X148089246Y-87270348D01*
X148086338Y-87214188D01*
X148083432Y-87170089D01*
X148080095Y-87134750D01*
X148075897Y-87104867D01*
X148070406Y-87077138D01*
X148063191Y-87048260D01*
X148057643Y-87028260D01*
X148043215Y-86983209D01*
X148024466Y-86932622D01*
X148004435Y-86884459D01*
X147994528Y-86863026D01*
X147949193Y-86785400D01*
X147894343Y-86719811D01*
X147830166Y-86666405D01*
X147756851Y-86625329D01*
X147674586Y-86596729D01*
X147642956Y-86589544D01*
X147605474Y-86584242D01*
X147559341Y-86580942D01*
X147508128Y-86579568D01*
X147455406Y-86580044D01*
X147404746Y-86582295D01*
X147359719Y-86586245D01*
X147323898Y-86591817D01*
X147306088Y-86596689D01*
X147257472Y-86619690D01*
X147219269Y-86650190D01*
X147187771Y-86691458D01*
X147176709Y-86710793D01*
X147146702Y-86766959D01*
X147144045Y-87385628D01*
X147143543Y-87514906D01*
X147143224Y-87629653D01*
X147143110Y-87730707D01*
X146632605Y-87730707D01*
X146632456Y-87650357D01*
X146632168Y-87532162D01*
G37*
G36*
X151399723Y-86150702D02*
G01*
X151431864Y-86151229D01*
X151456145Y-86152094D01*
X151473817Y-86153333D01*
X151486133Y-86154986D01*
X151494344Y-86157090D01*
X151499701Y-86159683D01*
X151503457Y-86162804D01*
X151505355Y-86164827D01*
X151510404Y-86171840D01*
X151514203Y-86181677D01*
X151516982Y-86196571D01*
X151518970Y-86218753D01*
X151520398Y-86250456D01*
X151521493Y-86293913D01*
X151522108Y-86327761D01*
X151522649Y-86376053D01*
X151522666Y-86421089D01*
X151522195Y-86459815D01*
X151521272Y-86489176D01*
X151519987Y-86505771D01*
X151515520Y-86525897D01*
X151506699Y-86537124D01*
X151488637Y-86544948D01*
X151483786Y-86546494D01*
X151432663Y-86570306D01*
X151385550Y-86608614D01*
X151342410Y-86661484D01*
X151303206Y-86728982D01*
X151267901Y-86811171D01*
X151236458Y-86908119D01*
X151208840Y-87019889D01*
X151204973Y-87038185D01*
X151200928Y-87057414D01*
X151193841Y-87090735D01*
X151183914Y-87137215D01*
X151171346Y-87195921D01*
X151156340Y-87265920D01*
X151139096Y-87346281D01*
X151119815Y-87436069D01*
X151098698Y-87534353D01*
X151075945Y-87640199D01*
X151051758Y-87752675D01*
X151026338Y-87870848D01*
X150999886Y-87993784D01*
X150972601Y-88120552D01*
X150944687Y-88250218D01*
X150916342Y-88381850D01*
X150887768Y-88514515D01*
X150859167Y-88647280D01*
X150830739Y-88779212D01*
X150802685Y-88909379D01*
X150775205Y-89036848D01*
X150748501Y-89160685D01*
X150722774Y-89279958D01*
X150698225Y-89393735D01*
X150675054Y-89501083D01*
X150653462Y-89601068D01*
X150633651Y-89692758D01*
X150615821Y-89775220D01*
X150600173Y-89847522D01*
X150586909Y-89908730D01*
X150576228Y-89957912D01*
X150568332Y-89994135D01*
X150565661Y-90006324D01*
X150556382Y-90049279D01*
X150544967Y-90103267D01*
X150532257Y-90164243D01*
X150519093Y-90228159D01*
X150506316Y-90290971D01*
X150500961Y-90317580D01*
X150488927Y-90376532D01*
X150476310Y-90436474D01*
X150463883Y-90493859D01*
X150452420Y-90545142D01*
X150442695Y-90586777D01*
X150438475Y-90603858D01*
X150414512Y-90698003D01*
X150231730Y-90698003D01*
X150173848Y-90697924D01*
X150129497Y-90697598D01*
X150096840Y-90696893D01*
X150074039Y-90695677D01*
X150059254Y-90693817D01*
X150050648Y-90691180D01*
X150046382Y-90687635D01*
X150044997Y-90684554D01*
X150037984Y-90658654D01*
X150028326Y-90620053D01*
X150016561Y-90571086D01*
X150003223Y-90514089D01*
X149988850Y-90451398D01*
X149973977Y-90385350D01*
X149959140Y-90318281D01*
X149944874Y-90252526D01*
X149932593Y-90194614D01*
X149919686Y-90133301D01*
X149904288Y-90060757D01*
X149887210Y-89980761D01*
X149869263Y-89897096D01*
X149851255Y-89813540D01*
X149833998Y-89733876D01*
X149825552Y-89695068D01*
X149810802Y-89627382D01*
X149796399Y-89561205D01*
X149782838Y-89498814D01*
X149770612Y-89442487D01*
X149760217Y-89394500D01*
X149752145Y-89357129D01*
X149747148Y-89333858D01*
X149739490Y-89298689D01*
X149729406Y-89253411D01*
X149717987Y-89202879D01*
X149706328Y-89151946D01*
X149701295Y-89130197D01*
X149689969Y-89080682D01*
X149678537Y-89029384D01*
X149668061Y-88981152D01*
X149659601Y-88940836D01*
X149656728Y-88926536D01*
X149652363Y-88905287D01*
X149645002Y-88870589D01*
X149634982Y-88823995D01*
X149622644Y-88767062D01*
X149608326Y-88701342D01*
X149592366Y-88628392D01*
X149575104Y-88549765D01*
X149556877Y-88467016D01*
X149538026Y-88381700D01*
X149536993Y-88377035D01*
X149515770Y-88281067D01*
X149493290Y-88179256D01*
X149470168Y-88074393D01*
X149447019Y-87969271D01*
X149424456Y-87866682D01*
X149403094Y-87769419D01*
X149383548Y-87680274D01*
X149366431Y-87602040D01*
X149359453Y-87570076D01*
X149330022Y-87436047D01*
X149303252Y-87316093D01*
X149278904Y-87209192D01*
X149256736Y-87114324D01*
X149236510Y-87030470D01*
X149217985Y-86956608D01*
X149200922Y-86891719D01*
X149194126Y-86866868D01*
X149163530Y-86781752D01*
X149121854Y-86707138D01*
X149069254Y-86643215D01*
X149005881Y-86590175D01*
X148941225Y-86552604D01*
X148875900Y-86521029D01*
X148873829Y-86358752D01*
X148873225Y-86304450D01*
X148873090Y-86263358D01*
X148873576Y-86233317D01*
X148874836Y-86212170D01*
X148877023Y-86197758D01*
X148880291Y-86187924D01*
X148884792Y-86180509D01*
X148886638Y-86178147D01*
X148901519Y-86159819D01*
X149441580Y-86161480D01*
X149545688Y-86161808D01*
X149635517Y-86162128D01*
X149712154Y-86162475D01*
X149776691Y-86162882D01*
X149830217Y-86163385D01*
X149873823Y-86164017D01*
X149908598Y-86164813D01*
X149935633Y-86165806D01*
X149956017Y-86167032D01*
X149970841Y-86168525D01*
X149981194Y-86170319D01*
X149988167Y-86172448D01*
X149992849Y-86174947D01*
X149996331Y-86177850D01*
X149997484Y-86178984D01*
X150002933Y-86185319D01*
X150006996Y-86193367D01*
X150009898Y-86205345D01*
X150011863Y-86223467D01*
X150013117Y-86249950D01*
X150013883Y-86287010D01*
X150014386Y-86336861D01*
X150014459Y-86346400D01*
X150014478Y-86393803D01*
X150013863Y-86436452D01*
X150012703Y-86471765D01*
X150011086Y-86497161D01*
X150009099Y-86510060D01*
X150008857Y-86510615D01*
X149997090Y-86519460D01*
X149972098Y-86528727D01*
X149942401Y-86536249D01*
X149872316Y-86555800D01*
X149815820Y-86580936D01*
X149773213Y-86611484D01*
X149744799Y-86647272D01*
X149743364Y-86649940D01*
X149737649Y-86668491D01*
X149732677Y-86699365D01*
X149728889Y-86739518D01*
X149727802Y-86757535D01*
X149726497Y-86791785D01*
X149726597Y-86822774D01*
X149728412Y-86854185D01*
X149732250Y-86889697D01*
X149738422Y-86932993D01*
X149747068Y-86986737D01*
X149757331Y-87045112D01*
X149769822Y-87110739D01*
X149783257Y-87177171D01*
X149796352Y-87237960D01*
X149802179Y-87263409D01*
X149814581Y-87316831D01*
X149827761Y-87374672D01*
X149840465Y-87431352D01*
X149851437Y-87481293D01*
X149855649Y-87500908D01*
X149865315Y-87545642D01*
X149877256Y-87599791D01*
X149890237Y-87657805D01*
X149903019Y-87714137D01*
X149908768Y-87739153D01*
X149920885Y-87792064D01*
X149934998Y-87854417D01*
X149949853Y-87920633D01*
X149964198Y-87985131D01*
X149974345Y-88031195D01*
X149985025Y-88079714D01*
X149998028Y-88138389D01*
X150013097Y-88206081D01*
X150029974Y-88281649D01*
X150048400Y-88363953D01*
X150068118Y-88451852D01*
X150088871Y-88544206D01*
X150110399Y-88639875D01*
X150132446Y-88737718D01*
X150154753Y-88836595D01*
X150177063Y-88935366D01*
X150199117Y-89032890D01*
X150220658Y-89128027D01*
X150241428Y-89219636D01*
X150261168Y-89306578D01*
X150279622Y-89387711D01*
X150296530Y-89461896D01*
X150311636Y-89527992D01*
X150324682Y-89584859D01*
X150335408Y-89631356D01*
X150343559Y-89666343D01*
X150348875Y-89688680D01*
X150351098Y-89697226D01*
X150351127Y-89697275D01*
X150354460Y-89691838D01*
X150360440Y-89672410D01*
X150368824Y-89640095D01*
X150379366Y-89595999D01*
X150391821Y-89541225D01*
X150405945Y-89476880D01*
X150421493Y-89404066D01*
X150438221Y-89323890D01*
X150455882Y-89237456D01*
X150474233Y-89145869D01*
X150481889Y-89107141D01*
X150492849Y-89051867D01*
X150503769Y-88997492D01*
X150513999Y-88947203D01*
X150522890Y-88904188D01*
X150529789Y-88871633D01*
X150532079Y-88861210D01*
X150536024Y-88842852D01*
X150542749Y-88810681D01*
X150551998Y-88765954D01*
X150563516Y-88709925D01*
X150577051Y-88643853D01*
X150592346Y-88568991D01*
X150609149Y-88486596D01*
X150627203Y-88397924D01*
X150646255Y-88304231D01*
X150666050Y-88206773D01*
X150686334Y-88106805D01*
X150706852Y-88005584D01*
X150727351Y-87904365D01*
X150747574Y-87804404D01*
X150767269Y-87706958D01*
X150786179Y-87613282D01*
X150804052Y-87524631D01*
X150820633Y-87442263D01*
X150835666Y-87367432D01*
X150848898Y-87301395D01*
X150860074Y-87245407D01*
X150868939Y-87200725D01*
X150875240Y-87168605D01*
X150878553Y-87151226D01*
X150887403Y-87094992D01*
X150894657Y-87033232D01*
X150900061Y-86969858D01*
X150903355Y-86908785D01*
X150904283Y-86853926D01*
X150902589Y-86809195D01*
X150901661Y-86799479D01*
X150888159Y-86734010D01*
X150862973Y-86677659D01*
X150825320Y-86628707D01*
X150822558Y-86625877D01*
X150778788Y-86588082D01*
X150732601Y-86562493D01*
X150678614Y-86546233D01*
X150670502Y-86544608D01*
X150642303Y-86538422D01*
X150619878Y-86532007D01*
X150607715Y-86526665D01*
X150607264Y-86526269D01*
X150604560Y-86516316D01*
X150601852Y-86493264D01*
X150599312Y-86459383D01*
X150597110Y-86416942D01*
X150595421Y-86368409D01*
X150594100Y-86309032D01*
X150594018Y-86263083D01*
X150595564Y-86228642D01*
X150599127Y-86203791D01*
X150605098Y-86186610D01*
X150613865Y-86175180D01*
X150625818Y-86167582D01*
X150637044Y-86163264D01*
X150651038Y-86160981D01*
X150678619Y-86158940D01*
X150720064Y-86157135D01*
X150775652Y-86155557D01*
X150845658Y-86154201D01*
X150930360Y-86153058D01*
X151030036Y-86152121D01*
X151077308Y-86151782D01*
X151167525Y-86151197D01*
X151243623Y-86150759D01*
X151306854Y-86150504D01*
X151358470Y-86150473D01*
X151399723Y-86150702D01*
G37*
G36*
X144909325Y-86161219D02*
G01*
X145008514Y-86184879D01*
X145106710Y-86220711D01*
X145202431Y-86268358D01*
X145294193Y-86327461D01*
X145380515Y-86397661D01*
X145384790Y-86401574D01*
X145436615Y-86449287D01*
X145444746Y-86427902D01*
X145449849Y-86411640D01*
X145457227Y-86384571D01*
X145465770Y-86350878D01*
X145472099Y-86324538D01*
X145491322Y-86242560D01*
X145531266Y-86237761D01*
X145573143Y-86234078D01*
X145612214Y-86233079D01*
X145645063Y-86234654D01*
X145668274Y-86238693D01*
X145676386Y-86242436D01*
X145685984Y-86256268D01*
X145693136Y-86277009D01*
X145693528Y-86278941D01*
X145695716Y-86290735D01*
X145700446Y-86316402D01*
X145707488Y-86354696D01*
X145716614Y-86404369D01*
X145727595Y-86464177D01*
X145740202Y-86532872D01*
X145754207Y-86609208D01*
X145769381Y-86691939D01*
X145785494Y-86779819D01*
X145802155Y-86870711D01*
X145819018Y-86962587D01*
X145835225Y-87050637D01*
X145850540Y-87133604D01*
X145864731Y-87210230D01*
X145877562Y-87279257D01*
X145888799Y-87339429D01*
X145898209Y-87389488D01*
X145905556Y-87428177D01*
X145910607Y-87454237D01*
X145913107Y-87466324D01*
X145918210Y-87495607D01*
X145920675Y-87525633D01*
X145920709Y-87528007D01*
X145920892Y-87558948D01*
X145824947Y-87608440D01*
X145783480Y-87629059D01*
X145751695Y-87643228D01*
X145730790Y-87650456D01*
X145722150Y-87650509D01*
X145716830Y-87640219D01*
X145708460Y-87619053D01*
X145698506Y-87590828D01*
X145694197Y-87577761D01*
X145651637Y-87456096D01*
X145604302Y-87339093D01*
X145553093Y-87228407D01*
X145498907Y-87125689D01*
X145442643Y-87032592D01*
X145385200Y-86950769D01*
X145327478Y-86881872D01*
X145301197Y-86855090D01*
X145223478Y-86784816D01*
X145149956Y-86728034D01*
X145079156Y-86683950D01*
X145009603Y-86651770D01*
X144939825Y-86630699D01*
X144868346Y-86619944D01*
X144864160Y-86619623D01*
X144787701Y-86620707D01*
X144717984Y-86635559D01*
X144655111Y-86664140D01*
X144599188Y-86706410D01*
X144581131Y-86724588D01*
X144528675Y-86792513D01*
X144486783Y-86871482D01*
X144455503Y-86961333D01*
X144434882Y-87061902D01*
X144424965Y-87173024D01*
X144424802Y-87270348D01*
X144428754Y-87342905D01*
X144435910Y-87404323D01*
X144447156Y-87458657D01*
X144463377Y-87509964D01*
X144485461Y-87562300D01*
X144491244Y-87574457D01*
X144514099Y-87616477D01*
X144539541Y-87650866D01*
X144571505Y-87683638D01*
X144601909Y-87710388D01*
X144633982Y-87734755D01*
X144670093Y-87758118D01*
X144712611Y-87781851D01*
X144763904Y-87807332D01*
X144826341Y-87835936D01*
X144856475Y-87849220D01*
X144919544Y-87876980D01*
X144987376Y-87907189D01*
X145058133Y-87939002D01*
X145129977Y-87971570D01*
X145201069Y-88004047D01*
X145269571Y-88035585D01*
X145333644Y-88065337D01*
X145391450Y-88092456D01*
X145441150Y-88116095D01*
X145480907Y-88135406D01*
X145508882Y-88149542D01*
X145513570Y-88152034D01*
X145623247Y-88217855D01*
X145719785Y-88290225D01*
X145803780Y-88369983D01*
X145875823Y-88457971D01*
X145936509Y-88555027D01*
X145986432Y-88661992D01*
X146026185Y-88779705D01*
X146056363Y-88909007D01*
X146059077Y-88923719D01*
X146070850Y-89004001D01*
X146079705Y-89095760D01*
X146085564Y-89195365D01*
X146088348Y-89299185D01*
X146087980Y-89403591D01*
X146084380Y-89504952D01*
X146077470Y-89599638D01*
X146074344Y-89629743D01*
X146054649Y-89761611D01*
X146025687Y-89894229D01*
X145988577Y-90023619D01*
X145944438Y-90145805D01*
X145902439Y-90240597D01*
X145837366Y-90360859D01*
X145766204Y-90467111D01*
X145688739Y-90559543D01*
X145604757Y-90638350D01*
X145514044Y-90703725D01*
X145416386Y-90755859D01*
X145311569Y-90794945D01*
X145275325Y-90805025D01*
X145226199Y-90814578D01*
X145167132Y-90821355D01*
X145103348Y-90825104D01*
X145040067Y-90825573D01*
X144982512Y-90822510D01*
X144961792Y-90820175D01*
X144906079Y-90810546D01*
X144845234Y-90796440D01*
X144782638Y-90778955D01*
X144721671Y-90759188D01*
X144665714Y-90738238D01*
X144618146Y-90717202D01*
X144582349Y-90697178D01*
X144581748Y-90696776D01*
X144543036Y-90669531D01*
X144505555Y-90640895D01*
X144471962Y-90613103D01*
X144444914Y-90588389D01*
X144427068Y-90568989D01*
X144423243Y-90563461D01*
X144409315Y-90544341D01*
X144394854Y-90530843D01*
X144392901Y-90529669D01*
X144382768Y-90526310D01*
X144375270Y-90531501D01*
X144367132Y-90548010D01*
X144365028Y-90553188D01*
X144357462Y-90576376D01*
X144349187Y-90608350D01*
X144341839Y-90642705D01*
X144341006Y-90647188D01*
X144333727Y-90687222D01*
X144327223Y-90714602D01*
X144318740Y-90731635D01*
X144305524Y-90740628D01*
X144284821Y-90743885D01*
X144253875Y-90743715D01*
X144226763Y-90742852D01*
X144191514Y-90741413D01*
X144162123Y-90739458D01*
X144141870Y-90737256D01*
X144134171Y-90735286D01*
X144131733Y-90726826D01*
X144126984Y-90704945D01*
X144120254Y-90671364D01*
X144111874Y-90627805D01*
X144102175Y-90575987D01*
X144091489Y-90517632D01*
X144080202Y-90454772D01*
X144066457Y-90377724D01*
X144050734Y-90289981D01*
X144033829Y-90195966D01*
X144016539Y-90100102D01*
X143999662Y-90006813D01*
X143983995Y-89920520D01*
X143977225Y-89883359D01*
X143963093Y-89805562D01*
X143947992Y-89721857D01*
X143932588Y-89635976D01*
X143917548Y-89551650D01*
X143903538Y-89472612D01*
X143891223Y-89402593D01*
X143884603Y-89364599D01*
X143874669Y-89307467D01*
X143865473Y-89254866D01*
X143857370Y-89208814D01*
X143850719Y-89171329D01*
X143845875Y-89144426D01*
X143843195Y-89130125D01*
X143842895Y-89128712D01*
X143846930Y-89116982D01*
X143863550Y-89099195D01*
X143893123Y-89074915D01*
X143929491Y-89047936D01*
X143964120Y-89023801D01*
X143994538Y-89004097D01*
X144018272Y-88990414D01*
X144032851Y-88984339D01*
X144034357Y-88984176D01*
X144039322Y-88991133D01*
X144047978Y-89010485D01*
X144059439Y-89039956D01*
X144072821Y-89077266D01*
X144087236Y-89120138D01*
X144087384Y-89120590D01*
X144135364Y-89263091D01*
X144182187Y-89391995D01*
X144228663Y-89508948D01*
X144275602Y-89615598D01*
X144323812Y-89713590D01*
X144374103Y-89804572D01*
X144427285Y-89890190D01*
X144484167Y-89972092D01*
X144544519Y-90050634D01*
X144618836Y-90136152D01*
X144692607Y-90206958D01*
X144766665Y-90263647D01*
X144841839Y-90306817D01*
X144918961Y-90337062D01*
X144957901Y-90347388D01*
X145041311Y-90358743D01*
X145122689Y-90354909D01*
X145201559Y-90335991D01*
X145277447Y-90302094D01*
X145334423Y-90265202D01*
X145395955Y-90210376D01*
X145450599Y-90143002D01*
X145497819Y-90064530D01*
X145537074Y-89976410D01*
X145567827Y-89880094D01*
X145589539Y-89777030D01*
X145601672Y-89668670D01*
X145603687Y-89556463D01*
X145603165Y-89541362D01*
X145595667Y-89440735D01*
X145581450Y-89352577D01*
X145559797Y-89275207D01*
X145529993Y-89206945D01*
X145491322Y-89146110D01*
X145443069Y-89091022D01*
X145392213Y-89046044D01*
X145371969Y-89030335D01*
X145351386Y-89015410D01*
X145329165Y-89000588D01*
X145304007Y-88985185D01*
X145274616Y-88968519D01*
X145239692Y-88949907D01*
X145197938Y-88928666D01*
X145148056Y-88904114D01*
X145088748Y-88875568D01*
X145018715Y-88842345D01*
X144936660Y-88803763D01*
X144889954Y-88781891D01*
X144802206Y-88740791D01*
X144727092Y-88705459D01*
X144663296Y-88675210D01*
X144609500Y-88649361D01*
X144564388Y-88627226D01*
X144526643Y-88608122D01*
X144494949Y-88591364D01*
X144467988Y-88576268D01*
X144444445Y-88562149D01*
X144423001Y-88548324D01*
X144402341Y-88534108D01*
X144381148Y-88518816D01*
X144374865Y-88514194D01*
X144281043Y-88435961D01*
X144198603Y-88348419D01*
X144128374Y-88252648D01*
X144071185Y-88149727D01*
X144042016Y-88081150D01*
X144023561Y-88026806D01*
X144004866Y-87962112D01*
X143987151Y-87892020D01*
X143971633Y-87821481D01*
X143959533Y-87755446D01*
X143955932Y-87731468D01*
X143950494Y-87680657D01*
X143946433Y-87618783D01*
X143943747Y-87549185D01*
X143942437Y-87475202D01*
X143942503Y-87400173D01*
X143943945Y-87327437D01*
X143946764Y-87260335D01*
X143950960Y-87202204D01*
X143955900Y-87160408D01*
X143984305Y-87006289D01*
X144020651Y-86863933D01*
X144064792Y-86733583D01*
X144116582Y-86615481D01*
X144175876Y-86509872D01*
X144242528Y-86416997D01*
X144316395Y-86337102D01*
X144397329Y-86270428D01*
X144485186Y-86217220D01*
X144532299Y-86195477D01*
X144620630Y-86166861D01*
X144713900Y-86151852D01*
X144810626Y-86150090D01*
X144909325Y-86161219D01*
G37*
D13*
X214200000Y-115000000D02*
G75*
G03*
X214200000Y-115000000I-1200000J0D01*
G01*
X147040000Y-113770000D02*
X147370000Y-113770000D01*
X144630000Y-107230000D02*
X144960000Y-107230000D01*
X147370000Y-113770000D02*
X147370000Y-107230000D01*
X147370000Y-107230000D02*
X147040000Y-107230000D01*
X144960000Y-113770000D02*
X144630000Y-113770000D01*
X144630000Y-113770000D02*
X144630000Y-107230000D01*
X201370000Y-125294888D02*
G75*
G03*
X201370000Y-125294888I-2620000J0D01*
G01*
X201270000Y-125854888D02*
X199790000Y-125854888D01*
X197710000Y-125294888D02*
X196170000Y-125294888D01*
X199268000Y-127855888D02*
X198232000Y-127855888D01*
X197710000Y-125574888D02*
X196185000Y-125574888D01*
X199761000Y-127695888D02*
X197739000Y-127695888D01*
X200535000Y-127175888D02*
X199790000Y-127175888D01*
X200997000Y-126575888D02*
X199790000Y-126575888D01*
X201330000Y-125294888D02*
X199790000Y-125294888D01*
X201251000Y-125934888D02*
X199790000Y-125934888D01*
X197710000Y-126735888D02*
X196601000Y-126735888D01*
X197710000Y-126255888D02*
X196352000Y-126255888D01*
X201319000Y-125534888D02*
X199790000Y-125534888D01*
X200754000Y-126935888D02*
X199790000Y-126935888D01*
X200687000Y-127015888D02*
X199790000Y-127015888D01*
X199928000Y-127615888D02*
X197572000Y-127615888D01*
X197710000Y-125734888D02*
X196207000Y-125734888D01*
X201079000Y-126415888D02*
X199790000Y-126415888D01*
X197710000Y-127095888D02*
X196886000Y-127095888D01*
X197710000Y-126935888D02*
X196746000Y-126935888D01*
X201329000Y-125374888D02*
X199790000Y-125374888D01*
X201148000Y-126255888D02*
X199790000Y-126255888D01*
X197710000Y-125414888D02*
X196172000Y-125414888D01*
X197710000Y-126015888D02*
X196270000Y-126015888D01*
X197710000Y-126335888D02*
X196385000Y-126335888D01*
X197710000Y-126975888D02*
X196779000Y-126975888D01*
X197710000Y-126375888D02*
X196402000Y-126375888D01*
X201060000Y-126455888D02*
X199790000Y-126455888D01*
X197710000Y-127135888D02*
X196924000Y-127135888D01*
X200304000Y-127375888D02*
X197196000Y-127375888D01*
X200925000Y-126695888D02*
X199790000Y-126695888D01*
X197710000Y-126095888D02*
X196295000Y-126095888D01*
X200355000Y-127335888D02*
X197145000Y-127335888D01*
X201328000Y-125414888D02*
X199790000Y-125414888D01*
X199665000Y-127735888D02*
X197835000Y-127735888D01*
X200449000Y-127255888D02*
X199790000Y-127255888D01*
X200845000Y-126815888D02*
X199790000Y-126815888D01*
X197710000Y-125694888D02*
X196200000Y-125694888D01*
X200721000Y-126975888D02*
X199790000Y-126975888D01*
X200001000Y-127575888D02*
X197499000Y-127575888D01*
X200193000Y-127455888D02*
X197307000Y-127455888D01*
X200250000Y-127415888D02*
X197250000Y-127415888D01*
X197710000Y-125534888D02*
X196181000Y-125534888D01*
X199427000Y-127815888D02*
X198073000Y-127815888D01*
X200614000Y-127095888D02*
X199790000Y-127095888D01*
X201261000Y-125894888D02*
X199790000Y-125894888D01*
X197710000Y-125494888D02*
X196177000Y-125494888D01*
X201286000Y-125774888D02*
X199790000Y-125774888D01*
X197710000Y-126415888D02*
X196421000Y-126415888D01*
X200785000Y-126895888D02*
X199790000Y-126895888D01*
X201330000Y-125334888D02*
X199790000Y-125334888D01*
X201300000Y-125694888D02*
X199790000Y-125694888D01*
X201218000Y-126055888D02*
X199790000Y-126055888D01*
X197710000Y-126175888D02*
X196322000Y-126175888D01*
X200576000Y-127135888D02*
X199790000Y-127135888D01*
X201323000Y-125494888D02*
X199790000Y-125494888D01*
X197710000Y-126855888D02*
X196685000Y-126855888D01*
X197710000Y-126895888D02*
X196715000Y-126895888D01*
X197710000Y-125894888D02*
X196239000Y-125894888D01*
X200815000Y-126855888D02*
X199790000Y-126855888D01*
X201132000Y-126295888D02*
X199790000Y-126295888D01*
X197710000Y-126535888D02*
X196482000Y-126535888D01*
X197710000Y-126615888D02*
X196526000Y-126615888D01*
X201018000Y-126535888D02*
X199790000Y-126535888D01*
X197710000Y-126055888D02*
X196282000Y-126055888D01*
X200069000Y-127535888D02*
X197431000Y-127535888D01*
X200899000Y-126735888D02*
X199790000Y-126735888D01*
X197710000Y-125974888D02*
X196259000Y-125974888D01*
X197710000Y-126655888D02*
X196550000Y-126655888D01*
X197710000Y-126215888D02*
X196336000Y-126215888D01*
X197710000Y-125454888D02*
X196174000Y-125454888D01*
X197710000Y-125654888D02*
X196194000Y-125654888D01*
X197710000Y-127295888D02*
X197097000Y-127295888D01*
X201040000Y-126495888D02*
X199790000Y-126495888D01*
X201241000Y-125974888D02*
X199790000Y-125974888D01*
X197710000Y-126455888D02*
X196440000Y-126455888D01*
X201098000Y-126375888D02*
X199790000Y-126375888D01*
X200225000Y-122490113D02*
X200225000Y-122990113D01*
X200403000Y-127295888D02*
X199790000Y-127295888D01*
X197710000Y-125854888D02*
X196230000Y-125854888D01*
X201315000Y-125574888D02*
X199790000Y-125574888D01*
X197710000Y-125814888D02*
X196222000Y-125814888D01*
X197710000Y-126295888D02*
X196368000Y-126295888D01*
X197710000Y-127055888D02*
X196849000Y-127055888D01*
X200974000Y-126615888D02*
X199790000Y-126615888D01*
X200872000Y-126775888D02*
X199790000Y-126775888D01*
X197710000Y-127015888D02*
X196813000Y-127015888D01*
X201278000Y-125814888D02*
X199790000Y-125814888D01*
X197710000Y-126495888D02*
X196460000Y-126495888D01*
X201115000Y-126335888D02*
X199790000Y-126335888D01*
X201311000Y-125614888D02*
X199790000Y-125614888D01*
X199034000Y-127895888D02*
X198466000Y-127895888D01*
X201205000Y-126095888D02*
X199790000Y-126095888D01*
X199555000Y-127775888D02*
X197945000Y-127775888D01*
X197710000Y-125774888D02*
X196214000Y-125774888D01*
X197710000Y-126575888D02*
X196503000Y-126575888D01*
X200651000Y-127055888D02*
X199790000Y-127055888D01*
X201326000Y-125454888D02*
X199790000Y-125454888D01*
X200475000Y-122740113D02*
X199975000Y-122740113D01*
X197710000Y-127175888D02*
X196965000Y-127175888D01*
X200950000Y-126655888D02*
X199790000Y-126655888D01*
X197710000Y-126815888D02*
X196655000Y-126815888D01*
X201293000Y-125734888D02*
X199790000Y-125734888D01*
X201230000Y-126015888D02*
X199790000Y-126015888D01*
X197710000Y-126775888D02*
X196628000Y-126775888D01*
X197710000Y-126135888D02*
X196308000Y-126135888D01*
X197710000Y-127215888D02*
X197007000Y-127215888D01*
X197710000Y-125334888D02*
X196170000Y-125334888D01*
X197710000Y-125934888D02*
X196249000Y-125934888D01*
X201192000Y-126135888D02*
X199790000Y-126135888D01*
X199848000Y-127655888D02*
X197652000Y-127655888D01*
X201306000Y-125654888D02*
X199790000Y-125654888D01*
X197710000Y-125374888D02*
X196171000Y-125374888D01*
X197710000Y-127255888D02*
X197051000Y-127255888D01*
X200493000Y-127215888D02*
X199790000Y-127215888D01*
X201178000Y-126175888D02*
X199790000Y-126175888D01*
X201164000Y-126215888D02*
X199790000Y-126215888D01*
X200133000Y-127495888D02*
X197367000Y-127495888D01*
X197710000Y-125614888D02*
X196189000Y-125614888D01*
X197710000Y-126695888D02*
X196575000Y-126695888D01*
X148790000Y-119480000D02*
X149120000Y-119480000D01*
X146380000Y-119480000D02*
X146380000Y-126020000D01*
X146710000Y-119480000D02*
X146380000Y-119480000D01*
X149120000Y-119480000D02*
X149120000Y-126020000D01*
X149120000Y-126020000D02*
X148790000Y-126020000D01*
X146380000Y-126020000D02*
X146710000Y-126020000D01*
X163730000Y-102079000D02*
X163730000Y-102745000D01*
X163730000Y-102079000D02*
X169070000Y-102079000D01*
X169070000Y-104855000D02*
X169070000Y-105521000D01*
X163730000Y-105521000D02*
X169070000Y-105521000D01*
X163730000Y-104855000D02*
X163730000Y-105521000D01*
X169070000Y-102079000D02*
X169070000Y-102745000D01*
X146200000Y-83500000D02*
G75*
G03*
X146200000Y-83500000I-1200000J0D01*
G01*
X188040000Y-116020000D02*
X188370000Y-116020000D01*
X185630000Y-116020000D02*
X185630000Y-109480000D01*
X185630000Y-109480000D02*
X185960000Y-109480000D01*
X188370000Y-109480000D02*
X188040000Y-109480000D01*
X185960000Y-116020000D02*
X185630000Y-116020000D01*
X188370000Y-116020000D02*
X188370000Y-109480000D01*
X173200000Y-83500000D02*
G75*
G03*
X173200000Y-83500000I-1200000J0D01*
G01*
X151620000Y-113770000D02*
X151290000Y-113770000D01*
X149210000Y-107230000D02*
X148880000Y-107230000D01*
X151620000Y-107230000D02*
X151620000Y-113770000D01*
X151290000Y-107230000D02*
X151620000Y-107230000D01*
X148880000Y-113770000D02*
X149210000Y-113770000D01*
X148880000Y-107230000D02*
X148880000Y-113770000D01*
X164370000Y-108030000D02*
X158630000Y-108030000D01*
X164370000Y-108030000D02*
X164370000Y-115470000D01*
X158630000Y-108030000D02*
X158630000Y-115470000D01*
X164370000Y-115470000D02*
X158630000Y-115470000D01*
X209620000Y-116620000D02*
X209620000Y-112380000D01*
X209620000Y-113220000D02*
X207380000Y-113220000D01*
X208500000Y-111730000D02*
X208500000Y-112380000D01*
X207380000Y-112380000D02*
X207380000Y-116620000D01*
X209620000Y-112380000D02*
X207380000Y-112380000D01*
X209620000Y-112980000D02*
X207380000Y-112980000D01*
X207380000Y-116620000D02*
X209620000Y-116620000D01*
X209620000Y-113100000D02*
X207380000Y-113100000D01*
X208500000Y-117270000D02*
X208500000Y-116620000D01*
X158870000Y-99270000D02*
X158870000Y-92730000D01*
X156130000Y-92730000D02*
X156460000Y-92730000D01*
X156130000Y-99270000D02*
X156130000Y-92730000D01*
X156460000Y-99270000D02*
X156130000Y-99270000D01*
X158540000Y-99270000D02*
X158870000Y-99270000D01*
X158870000Y-92730000D02*
X158540000Y-92730000D01*
X157200000Y-83500000D02*
G75*
G03*
X157200000Y-83500000I-1200000J0D01*
G01*
X166630000Y-115470000D02*
X169370000Y-115470000D01*
X169370000Y-115470000D02*
X169370000Y-108030000D01*
X166630000Y-108030000D02*
X169370000Y-108030000D01*
X166630000Y-115470000D02*
X166630000Y-108030000D01*
X177200000Y-83500000D02*
G75*
G03*
X177200000Y-83500000I-1200000J0D01*
G01*
X169200000Y-83500000D02*
G75*
G03*
X169200000Y-83500000I-1200000J0D01*
G01*
X204630000Y-99230000D02*
X204960000Y-99230000D01*
X204630000Y-105770000D02*
X204630000Y-99230000D01*
X207370000Y-105770000D02*
X207370000Y-99230000D01*
X204960000Y-105770000D02*
X204630000Y-105770000D01*
X207370000Y-99230000D02*
X207040000Y-99230000D01*
X207040000Y-105770000D02*
X207370000Y-105770000D01*
X153200000Y-83500000D02*
G75*
G03*
X153200000Y-83500000I-1200000J0D01*
G01*
X168670000Y-87950000D02*
X168020000Y-87950000D01*
X167180000Y-89070000D02*
X167180000Y-86830000D01*
X168020000Y-86830000D02*
X163780000Y-86830000D01*
X167420000Y-89070000D02*
X167420000Y-86830000D01*
X163130000Y-87950000D02*
X163780000Y-87950000D01*
X168020000Y-89070000D02*
X168020000Y-86830000D01*
X163780000Y-89070000D02*
X168020000Y-89070000D01*
X163780000Y-86830000D02*
X163780000Y-89070000D01*
X167300000Y-89070000D02*
X167300000Y-86830000D01*
X209472000Y-125240000D02*
X207290000Y-125240000D01*
X205210000Y-127241000D02*
X203907000Y-127241000D01*
X208245000Y-127561000D02*
X204255000Y-127561000D01*
X208700000Y-127121000D02*
X207290000Y-127121000D01*
X205210000Y-127041000D02*
X203734000Y-127041000D01*
X206883000Y-128201000D02*
X205617000Y-128201000D01*
X209348000Y-125921000D02*
X207290000Y-125921000D01*
X205210000Y-125560000D02*
X203068000Y-125560000D01*
X205210000Y-126561000D02*
X203416000Y-126561000D01*
X205210000Y-125721000D02*
X203100000Y-125721000D01*
X209324000Y-126001000D02*
X207290000Y-126001000D01*
X205210000Y-125280000D02*
X203032000Y-125280000D01*
X205210000Y-125440000D02*
X203049000Y-125440000D01*
X209480000Y-125040000D02*
X203020000Y-125040000D01*
X205210000Y-126041000D02*
X203189000Y-126041000D01*
X207900000Y-127801000D02*
X204600000Y-127801000D01*
X205210000Y-127281000D02*
X203945000Y-127281000D01*
X209465000Y-125320000D02*
X207290000Y-125320000D01*
X208089000Y-121499759D02*
X208089000Y-122129759D01*
X208140000Y-127641000D02*
X204360000Y-127641000D01*
X208432000Y-127401000D02*
X204068000Y-127401000D01*
X205210000Y-126761000D02*
X203534000Y-126761000D01*
X208886000Y-126881000D02*
X207290000Y-126881000D01*
X205210000Y-126201000D02*
X203248000Y-126201000D01*
X209252000Y-126201000D02*
X207290000Y-126201000D01*
X208857000Y-126921000D02*
X207290000Y-126921000D01*
X209166000Y-126401000D02*
X207290000Y-126401000D01*
X209040000Y-126641000D02*
X207290000Y-126641000D01*
X205210000Y-127081000D02*
X203766000Y-127081000D01*
X209468000Y-125280000D02*
X207290000Y-125280000D01*
X209425000Y-125600000D02*
X207290000Y-125600000D01*
X209478000Y-125120000D02*
X203022000Y-125120000D01*
X208294000Y-127521000D02*
X204206000Y-127521000D01*
X209268000Y-126161000D02*
X207290000Y-126161000D01*
X205210000Y-125520000D02*
X203061000Y-125520000D01*
X205210000Y-126441000D02*
X203354000Y-126441000D01*
X209439000Y-125520000D02*
X207290000Y-125520000D01*
X205210000Y-126961000D02*
X203672000Y-126961000D01*
X205210000Y-126801000D02*
X203560000Y-126801000D01*
X208734000Y-127081000D02*
X207290000Y-127081000D01*
X209480000Y-125000000D02*
X203020000Y-125000000D01*
X209062000Y-126601000D02*
X207290000Y-126601000D01*
X209126000Y-126481000D02*
X207290000Y-126481000D01*
X209474000Y-125200000D02*
X203026000Y-125200000D01*
X209445000Y-125480000D02*
X207290000Y-125480000D01*
X208404000Y-121814759D02*
X207774000Y-121814759D01*
X205210000Y-125360000D02*
X203039000Y-125360000D01*
X209400000Y-125721000D02*
X207290000Y-125721000D01*
X208387000Y-127441000D02*
X204113000Y-127441000D01*
X209417000Y-125640000D02*
X207290000Y-125640000D01*
X208798000Y-127001000D02*
X207290000Y-127001000D01*
X207512000Y-128001000D02*
X204988000Y-128001000D01*
X209016000Y-126681000D02*
X207290000Y-126681000D01*
X209336000Y-125961000D02*
X207290000Y-125961000D01*
X208630000Y-127201000D02*
X207290000Y-127201000D01*
X205210000Y-125680000D02*
X203091000Y-125680000D01*
X205210000Y-126521000D02*
X203394000Y-126521000D01*
X205210000Y-125961000D02*
X203164000Y-125961000D01*
X208593000Y-127241000D02*
X207290000Y-127241000D01*
X209451000Y-125440000D02*
X207290000Y-125440000D01*
X209202000Y-126321000D02*
X207290000Y-126321000D01*
X205210000Y-125881000D02*
X203140000Y-125881000D01*
X205210000Y-126921000D02*
X203643000Y-126921000D01*
X208084000Y-127681000D02*
X204416000Y-127681000D01*
X205210000Y-126481000D02*
X203374000Y-126481000D01*
X205210000Y-126281000D02*
X203280000Y-126281000D01*
X209184000Y-126361000D02*
X207290000Y-126361000D01*
X205210000Y-126161000D02*
X203232000Y-126161000D01*
X209456000Y-125400000D02*
X207290000Y-125400000D01*
X205210000Y-125761000D02*
X203109000Y-125761000D01*
X205210000Y-126241000D02*
X203264000Y-126241000D01*
X205210000Y-125801000D02*
X203119000Y-125801000D01*
X205210000Y-127121000D02*
X203800000Y-127121000D01*
X209360000Y-125881000D02*
X207290000Y-125881000D01*
X208515000Y-127321000D02*
X203985000Y-127321000D01*
X205210000Y-125640000D02*
X203083000Y-125640000D01*
X208342000Y-127481000D02*
X204158000Y-127481000D01*
X205210000Y-126681000D02*
X203484000Y-126681000D01*
X209311000Y-126041000D02*
X207290000Y-126041000D01*
X208666000Y-127161000D02*
X207290000Y-127161000D01*
X205210000Y-126881000D02*
X203614000Y-126881000D01*
X207964000Y-127761000D02*
X204536000Y-127761000D01*
X205210000Y-125921000D02*
X203152000Y-125921000D01*
X205210000Y-125480000D02*
X203055000Y-125480000D01*
X207600000Y-127961000D02*
X204900000Y-127961000D01*
X205210000Y-126121000D02*
X203217000Y-126121000D01*
X207759000Y-127881000D02*
X204741000Y-127881000D01*
X205210000Y-126721000D02*
X203508000Y-126721000D01*
X206652000Y-128241000D02*
X205848000Y-128241000D01*
X205210000Y-126841000D02*
X203586000Y-126841000D01*
X209461000Y-125360000D02*
X207290000Y-125360000D01*
X205210000Y-127001000D02*
X203702000Y-127001000D01*
X208555000Y-127281000D02*
X207290000Y-127281000D01*
X205210000Y-127201000D02*
X203870000Y-127201000D01*
X205210000Y-126081000D02*
X203203000Y-126081000D01*
X209220000Y-126281000D02*
X207290000Y-126281000D01*
X209432000Y-125560000D02*
X207290000Y-125560000D01*
X209297000Y-126081000D02*
X207290000Y-126081000D01*
X205210000Y-126641000D02*
X203460000Y-126641000D01*
X205210000Y-126601000D02*
X203438000Y-126601000D01*
X209381000Y-125801000D02*
X207290000Y-125801000D01*
X208940000Y-126801000D02*
X207290000Y-126801000D01*
X205210000Y-125600000D02*
X203075000Y-125600000D01*
X209106000Y-126521000D02*
X207290000Y-126521000D01*
X209146000Y-126441000D02*
X207290000Y-126441000D01*
X208966000Y-126761000D02*
X207290000Y-126761000D01*
X205210000Y-127161000D02*
X203834000Y-127161000D01*
X205210000Y-125320000D02*
X203035000Y-125320000D01*
X205210000Y-126321000D02*
X203298000Y-126321000D01*
X209084000Y-126561000D02*
X207290000Y-126561000D01*
X207309000Y-128081000D02*
X205191000Y-128081000D01*
X209391000Y-125761000D02*
X207290000Y-125761000D01*
X207052000Y-128161000D02*
X205448000Y-128161000D01*
X205210000Y-126401000D02*
X203334000Y-126401000D01*
X205210000Y-125240000D02*
X203028000Y-125240000D01*
X208194000Y-127601000D02*
X204306000Y-127601000D01*
X205210000Y-126361000D02*
X203316000Y-126361000D01*
X208026000Y-127721000D02*
X204474000Y-127721000D01*
X209236000Y-126241000D02*
X207290000Y-126241000D01*
X207831000Y-127841000D02*
X204669000Y-127841000D01*
X209409000Y-125680000D02*
X207290000Y-125680000D01*
X208766000Y-127041000D02*
X207290000Y-127041000D01*
X209283000Y-126121000D02*
X207290000Y-126121000D01*
X207682000Y-127921000D02*
X204818000Y-127921000D01*
X205210000Y-125841000D02*
X203129000Y-125841000D01*
X207415000Y-128041000D02*
X205085000Y-128041000D01*
X209371000Y-125841000D02*
X207290000Y-125841000D01*
X208474000Y-127361000D02*
X204026000Y-127361000D01*
X209480000Y-125080000D02*
X203020000Y-125080000D01*
X205210000Y-125400000D02*
X203044000Y-125400000D01*
X207190000Y-128121000D02*
X205310000Y-128121000D01*
X205210000Y-126001000D02*
X203176000Y-126001000D01*
X209477000Y-125160000D02*
X203023000Y-125160000D01*
X208992000Y-126721000D02*
X207290000Y-126721000D01*
X208828000Y-126961000D02*
X207290000Y-126961000D01*
X208914000Y-126841000D02*
X207290000Y-126841000D01*
X209520000Y-125000000D02*
G75*
G03*
X209520000Y-125000000I-3270000J0D01*
G01*
X161870000Y-119480000D02*
X161540000Y-119480000D01*
X161540000Y-126020000D02*
X161870000Y-126020000D01*
X159130000Y-126020000D02*
X159130000Y-119480000D01*
X161870000Y-126020000D02*
X161870000Y-119480000D01*
X159130000Y-119480000D02*
X159460000Y-119480000D01*
X159460000Y-126020000D02*
X159130000Y-126020000D01*
X189800000Y-83500000D02*
G75*
G03*
X189800000Y-83500000I-1200000J0D01*
G01*
X154210000Y-98760000D02*
X154210000Y-95160000D01*
X154210000Y-95160000D02*
G75*
G03*
X153482795Y-94635816I-1850000J-1800000D01*
G01*
X149760000Y-96960000D02*
G75*
G03*
X151261193Y-99316400I2600000J0D01*
G01*
X151261193Y-94603600D02*
G75*
G03*
X149760000Y-96960000I1098807J-2356400D01*
G01*
X153482795Y-99284184D02*
G75*
G03*
X154210000Y-98760000I-1122795J2324184D01*
G01*
X163880000Y-126020000D02*
X163880000Y-119480000D01*
X166290000Y-126020000D02*
X166620000Y-126020000D01*
X164210000Y-126020000D02*
X163880000Y-126020000D01*
X166620000Y-119480000D02*
X166290000Y-119480000D01*
X166620000Y-126020000D02*
X166620000Y-119480000D01*
X163880000Y-119480000D02*
X164210000Y-119480000D01*
X190380000Y-125770000D02*
X190380000Y-119230000D01*
X190710000Y-125770000D02*
X190380000Y-125770000D01*
X192790000Y-125770000D02*
X193120000Y-125770000D01*
X190380000Y-119230000D02*
X190710000Y-119230000D01*
X193120000Y-119230000D02*
X192790000Y-119230000D01*
X193120000Y-125770000D02*
X193120000Y-119230000D01*
X214370000Y-89250000D02*
G75*
G03*
X214370000Y-89250000I-2620000J0D01*
G01*
X214311000Y-88732000D02*
X214311000Y-89768000D01*
X213751000Y-87597000D02*
X213751000Y-88210000D01*
X211950000Y-90290000D02*
X211950000Y-91823000D01*
X211990000Y-90290000D02*
X211990000Y-91819000D01*
X213631000Y-90290000D02*
X213631000Y-91035000D01*
X212150000Y-90290000D02*
X212150000Y-91800000D01*
X211830000Y-90290000D02*
X211830000Y-91829000D01*
X211910000Y-86674000D02*
X211910000Y-88210000D01*
X212471000Y-90290000D02*
X212471000Y-91730000D01*
X211910000Y-90290000D02*
X211910000Y-91826000D01*
X213351000Y-87215000D02*
X213351000Y-88210000D01*
X213871000Y-87750000D02*
X213871000Y-90750000D01*
X212951000Y-90290000D02*
X212951000Y-91540000D01*
X212511000Y-90290000D02*
X212511000Y-91718000D01*
X213831000Y-87696000D02*
X213831000Y-90804000D01*
X212110000Y-86694000D02*
X212110000Y-88210000D01*
X212350000Y-90290000D02*
X212350000Y-91761000D01*
X214071000Y-88072000D02*
X214071000Y-90428000D01*
X213911000Y-87807000D02*
X213911000Y-90693000D01*
X212551000Y-86795000D02*
X212551000Y-88210000D01*
X213671000Y-90290000D02*
X213671000Y-90993000D01*
X212230000Y-86714000D02*
X212230000Y-88210000D01*
X213951000Y-87867000D02*
X213951000Y-90633000D01*
X213791000Y-87645000D02*
X213791000Y-90855000D01*
X212310000Y-86730000D02*
X212310000Y-88210000D01*
X213151000Y-90290000D02*
X213151000Y-91425000D01*
X213191000Y-90290000D02*
X213191000Y-91399000D01*
X212430000Y-90290000D02*
X212430000Y-91741000D01*
X213311000Y-90290000D02*
X213311000Y-91315000D01*
X213111000Y-90290000D02*
X213111000Y-91450000D01*
X213231000Y-90290000D02*
X213231000Y-91372000D01*
X212591000Y-90290000D02*
X212591000Y-91692000D01*
X213031000Y-87003000D02*
X213031000Y-88210000D01*
X213511000Y-87349000D02*
X213511000Y-88210000D01*
X212030000Y-90290000D02*
X212030000Y-91815000D01*
X212791000Y-86885000D02*
X212791000Y-88210000D01*
X212390000Y-86749000D02*
X212390000Y-88210000D01*
X214351000Y-88966000D02*
X214351000Y-89534000D01*
X213711000Y-87551000D02*
X213711000Y-88210000D01*
X213431000Y-90290000D02*
X213431000Y-91221000D01*
X212190000Y-86707000D02*
X212190000Y-88210000D01*
X212030000Y-86685000D02*
X212030000Y-88210000D01*
X212991000Y-86982000D02*
X212991000Y-88210000D01*
X212991000Y-90290000D02*
X212991000Y-91518000D01*
X212751000Y-90290000D02*
X212751000Y-91632000D01*
X212911000Y-86940000D02*
X212911000Y-88210000D01*
X211870000Y-90290000D02*
X211870000Y-91828000D01*
X211990000Y-86681000D02*
X211990000Y-88210000D01*
X213391000Y-90290000D02*
X213391000Y-91254000D01*
X212350000Y-86739000D02*
X212350000Y-88210000D01*
X212951000Y-86960000D02*
X212951000Y-88210000D01*
X212591000Y-86808000D02*
X212591000Y-88210000D01*
X212871000Y-90290000D02*
X212871000Y-91579000D01*
X211830000Y-86671000D02*
X211830000Y-88210000D01*
X211950000Y-86677000D02*
X211950000Y-88210000D01*
X212230000Y-90290000D02*
X212230000Y-91786000D01*
X212671000Y-86836000D02*
X212671000Y-88210000D01*
X212310000Y-90290000D02*
X212310000Y-91770000D01*
X212471000Y-86770000D02*
X212471000Y-88210000D01*
X213471000Y-90290000D02*
X213471000Y-91187000D01*
X213271000Y-90290000D02*
X213271000Y-91345000D01*
X214111000Y-88152000D02*
X214111000Y-90348000D01*
X212911000Y-90290000D02*
X212911000Y-91560000D01*
X209195225Y-87525000D02*
X209195225Y-88025000D01*
X212751000Y-86868000D02*
X212751000Y-88210000D01*
X213391000Y-87246000D02*
X213391000Y-88210000D01*
X214191000Y-88335000D02*
X214191000Y-90165000D01*
X213471000Y-87313000D02*
X213471000Y-88210000D01*
X213071000Y-87026000D02*
X213071000Y-88210000D01*
X213271000Y-87155000D02*
X213271000Y-88210000D01*
X212190000Y-90290000D02*
X212190000Y-91793000D01*
X213591000Y-87424000D02*
X213591000Y-88210000D01*
X213551000Y-87386000D02*
X213551000Y-88210000D01*
X213191000Y-87101000D02*
X213191000Y-88210000D01*
X212631000Y-86822000D02*
X212631000Y-88210000D01*
X212791000Y-90290000D02*
X212791000Y-91615000D01*
X213351000Y-90290000D02*
X213351000Y-91285000D01*
X212511000Y-86782000D02*
X212511000Y-88210000D01*
X212631000Y-90290000D02*
X212631000Y-91678000D01*
X212270000Y-86722000D02*
X212270000Y-88210000D01*
X212831000Y-90290000D02*
X212831000Y-91598000D01*
X212711000Y-90290000D02*
X212711000Y-91648000D01*
X212270000Y-90290000D02*
X212270000Y-91778000D01*
X212390000Y-90290000D02*
X212390000Y-91751000D01*
X213231000Y-87128000D02*
X213231000Y-88210000D01*
X213311000Y-87185000D02*
X213311000Y-88210000D01*
X214151000Y-88239000D02*
X214151000Y-90261000D01*
X212070000Y-90290000D02*
X212070000Y-91811000D01*
X211790000Y-86670000D02*
X211790000Y-88210000D01*
X212871000Y-86921000D02*
X212871000Y-88210000D01*
X213431000Y-87279000D02*
X213431000Y-88210000D01*
X213991000Y-87931000D02*
X213991000Y-90569000D01*
X211790000Y-90290000D02*
X211790000Y-91830000D01*
X208945225Y-87775000D02*
X209445225Y-87775000D01*
X213671000Y-87507000D02*
X213671000Y-88210000D01*
X211750000Y-86670000D02*
X211750000Y-88210000D01*
X213751000Y-90290000D02*
X213751000Y-90903000D01*
X212070000Y-86689000D02*
X212070000Y-88210000D01*
X211750000Y-90290000D02*
X211750000Y-91830000D01*
X212110000Y-90290000D02*
X212110000Y-91806000D01*
X212831000Y-86902000D02*
X212831000Y-88210000D01*
X213071000Y-90290000D02*
X213071000Y-91474000D01*
X214031000Y-87999000D02*
X214031000Y-90501000D01*
X211870000Y-86672000D02*
X211870000Y-88210000D01*
X212671000Y-90290000D02*
X212671000Y-91664000D01*
X214271000Y-88573000D02*
X214271000Y-89927000D01*
X213711000Y-90290000D02*
X213711000Y-90949000D01*
X212711000Y-86852000D02*
X212711000Y-88210000D01*
X212150000Y-86700000D02*
X212150000Y-88210000D01*
X213111000Y-87050000D02*
X213111000Y-88210000D01*
X213591000Y-90290000D02*
X213591000Y-91076000D01*
X214231000Y-88445000D02*
X214231000Y-90055000D01*
X212551000Y-90290000D02*
X212551000Y-91705000D01*
X213631000Y-87465000D02*
X213631000Y-88210000D01*
X213031000Y-90290000D02*
X213031000Y-91497000D01*
X213151000Y-87075000D02*
X213151000Y-88210000D01*
X213551000Y-90290000D02*
X213551000Y-91114000D01*
X212430000Y-86759000D02*
X212430000Y-88210000D01*
X213511000Y-90290000D02*
X213511000Y-91151000D01*
X212630000Y-105770000D02*
X212630000Y-99230000D01*
X212960000Y-105770000D02*
X212630000Y-105770000D01*
X215040000Y-105770000D02*
X215370000Y-105770000D01*
X215370000Y-105770000D02*
X215370000Y-99230000D01*
X215370000Y-99230000D02*
X215040000Y-99230000D01*
X212630000Y-99230000D02*
X212960000Y-99230000D01*
X208960000Y-99230000D02*
X208630000Y-99230000D01*
X211370000Y-105770000D02*
X211040000Y-105770000D01*
X208630000Y-99230000D02*
X208630000Y-105770000D01*
X211370000Y-99230000D02*
X211370000Y-105770000D01*
X211040000Y-99230000D02*
X211370000Y-99230000D01*
X208630000Y-105770000D02*
X208960000Y-105770000D01*
X205620000Y-90470000D02*
X202880000Y-90470000D01*
X205620000Y-83030000D02*
X205620000Y-90470000D01*
X205620000Y-83030000D02*
X202880000Y-83030000D01*
X202880000Y-83030000D02*
X202880000Y-90470000D01*
X172730000Y-99710000D02*
X172730000Y-99380000D01*
X172730000Y-99380000D02*
X179270000Y-99380000D01*
X172730000Y-101790000D02*
X172730000Y-102120000D01*
X179270000Y-102120000D02*
X179270000Y-101790000D01*
X172730000Y-102120000D02*
X179270000Y-102120000D01*
X179270000Y-99380000D02*
X179270000Y-99710000D01*
X207020000Y-92630000D02*
X207020000Y-92960000D01*
X200480000Y-92960000D02*
X200480000Y-92630000D01*
X207020000Y-95370000D02*
X207020000Y-95040000D01*
X200480000Y-92630000D02*
X207020000Y-92630000D01*
X200480000Y-95370000D02*
X207020000Y-95370000D01*
X200480000Y-95040000D02*
X200480000Y-95370000D01*
X195370000Y-110120000D02*
X195370000Y-102680000D01*
X189630000Y-110120000D02*
X189630000Y-102680000D01*
X189630000Y-102680000D02*
X195370000Y-102680000D01*
X189630000Y-110120000D02*
X195370000Y-110120000D01*
X204790000Y-117770000D02*
X205120000Y-117770000D01*
X202710000Y-117770000D02*
X202380000Y-117770000D01*
X202380000Y-111230000D02*
X202710000Y-111230000D01*
X205120000Y-111230000D02*
X204790000Y-111230000D01*
X202380000Y-117770000D02*
X202380000Y-111230000D01*
X205120000Y-117770000D02*
X205120000Y-111230000D01*
X165210000Y-84090000D02*
G75*
G03*
X165210000Y-84090000I-1200000J0D01*
G01*
X161200000Y-83500000D02*
G75*
G03*
X161200000Y-83500000I-1200000J0D01*
G01*
X181200000Y-83500000D02*
G75*
G03*
X181200000Y-83500000I-1200000J0D01*
G01*
X201728280Y-90470000D02*
X198988280Y-90470000D01*
X201728280Y-83030000D02*
X198988280Y-83030000D01*
X201728280Y-83030000D02*
X201728280Y-90470000D01*
X198988280Y-83030000D02*
X198988280Y-90470000D01*
X193200000Y-83500000D02*
G75*
G03*
X193200000Y-83500000I-1200000J0D01*
G01*
X215200000Y-83500000D02*
G75*
G03*
X215200000Y-83500000I-1200000J0D01*
G01*
X185200000Y-83500000D02*
G75*
G03*
X185200000Y-83500000I-1200000J0D01*
G01*
X174729039Y-90330000D02*
G75*
G03*
X176811130Y-90329837I1040961J1080000D01*
G01*
X177442335Y-88171392D02*
G75*
G03*
X174210000Y-88014484I-1672335J-1078608D01*
G01*
X176811130Y-88170163D02*
G75*
G03*
X174729039Y-88170000I-1041130J-1079837D01*
G01*
X174210000Y-90485516D02*
G75*
G03*
X177442335Y-90328608I1560000J1235516D01*
G01*
X174210000Y-90330000D02*
X174210000Y-90486000D01*
X174210000Y-88014000D02*
X174210000Y-88170000D01*
X165510000Y-92900000D02*
G75*
G03*
X165510000Y-92900000I-1200000J0D01*
G01*
X191970000Y-95670000D02*
X191640000Y-95670000D01*
X191970000Y-89130000D02*
X191970000Y-95670000D01*
X189560000Y-89130000D02*
X189230000Y-89130000D01*
X189230000Y-89130000D02*
X189230000Y-95670000D01*
X189230000Y-95670000D02*
X189560000Y-95670000D01*
X191640000Y-89130000D02*
X191970000Y-89130000D01*
X197900000Y-83500000D02*
G75*
G03*
X197900000Y-83500000I-1200000J0D01*
G01*
X156370000Y-109730000D02*
X156040000Y-109730000D01*
X153960000Y-116270000D02*
X153630000Y-116270000D01*
X153630000Y-116270000D02*
X153630000Y-109730000D01*
X153630000Y-109730000D02*
X153960000Y-109730000D01*
X156040000Y-116270000D02*
X156370000Y-116270000D01*
X156370000Y-116270000D02*
X156370000Y-109730000D01*
X164520000Y-96480000D02*
X164520000Y-98720000D01*
X164400000Y-96480000D02*
X164400000Y-98720000D01*
X163030000Y-97600000D02*
X163680000Y-97600000D01*
X163680000Y-98720000D02*
X167920000Y-98720000D01*
X168570000Y-97600000D02*
X167920000Y-97600000D01*
X163680000Y-96480000D02*
X163680000Y-98720000D01*
X164280000Y-96480000D02*
X164280000Y-98720000D01*
X167920000Y-98720000D02*
X167920000Y-96480000D01*
X167920000Y-96480000D02*
X163680000Y-96480000D01*
X170790000Y-123460000D02*
X170790000Y-123130000D01*
X170790000Y-125870000D02*
X177330000Y-125870000D01*
X177330000Y-125870000D02*
X177330000Y-125540000D01*
X177330000Y-123130000D02*
X177330000Y-123460000D01*
X170790000Y-125540000D02*
X170790000Y-125870000D01*
X170790000Y-123130000D02*
X177330000Y-123130000D01*
X197380000Y-111230000D02*
X197380000Y-117770000D01*
X200120000Y-117770000D02*
X199790000Y-117770000D01*
X197710000Y-111230000D02*
X197380000Y-111230000D01*
X197380000Y-117770000D02*
X197710000Y-117770000D01*
X200120000Y-111230000D02*
X200120000Y-117770000D01*
X199790000Y-111230000D02*
X200120000Y-111230000D01*
X168600000Y-92900000D02*
G75*
G03*
X168600000Y-92900000I-1200000J0D01*
G01*
X148120000Y-100970000D02*
X145380000Y-100970000D01*
X148120000Y-93530000D02*
X148120000Y-100970000D01*
X145380000Y-93530000D02*
X145380000Y-100970000D01*
X148120000Y-93530000D02*
X145380000Y-93530000D01*
X185830000Y-103370000D02*
X185830000Y-96830000D01*
X188570000Y-103370000D02*
X188570000Y-96830000D01*
X188240000Y-103370000D02*
X188570000Y-103370000D01*
X186160000Y-103370000D02*
X185830000Y-103370000D01*
X188570000Y-96830000D02*
X188240000Y-96830000D01*
X185830000Y-96830000D02*
X186160000Y-96830000D01*
D14*
X172965000Y-105920000D02*
X180800000Y-105920000D01*
X174200000Y-116080000D02*
X180800000Y-116080000D01*
D13*
X214200000Y-119750000D02*
G75*
G03*
X214200000Y-119750000I-1200000J0D01*
G01*
X184620000Y-127470000D02*
X184620000Y-120030000D01*
X181880000Y-127470000D02*
X184620000Y-127470000D01*
X181880000Y-127470000D02*
X181880000Y-120030000D01*
X181880000Y-120030000D02*
X184620000Y-120030000D01*
X214200000Y-124500000D02*
G75*
G03*
X214200000Y-124500000I-1200000J0D01*
G01*
X177340000Y-93764484D02*
G75*
G03*
X174107665Y-93921392I-1560000J-1235516D01*
G01*
X176820961Y-93920000D02*
G75*
G03*
X174738870Y-93920163I-1040961J-1080000D01*
G01*
X174107665Y-96078608D02*
G75*
G03*
X177340000Y-96235516I1672335J1078608D01*
G01*
X174738870Y-96079837D02*
G75*
G03*
X176820961Y-96080000I1041130J1079837D01*
G01*
X177340000Y-93920000D02*
X177340000Y-93764000D01*
X177340000Y-96236000D02*
X177340000Y-96080000D01*
X197350000Y-93300000D02*
X197350000Y-89700000D01*
X196622795Y-93824184D02*
G75*
G03*
X197350000Y-93300000I-1122795J2324184D01*
G01*
X197350000Y-89700000D02*
G75*
G03*
X196622795Y-89175816I-1850000J-1800000D01*
G01*
X192900000Y-91500000D02*
G75*
G03*
X194401193Y-93856400I2600000J0D01*
G01*
X194401193Y-89143600D02*
G75*
G03*
X192900000Y-91500000I1098807J-2356400D01*
G01*
X209700000Y-83500000D02*
G75*
G03*
X209700000Y-83500000I-1200000J0D01*
G01*
%LPC*%
D15*
X213000000Y-115000000D03*
D16*
X146000000Y-106690000D03*
D17*
X146000000Y-114310000D03*
X198750000Y-126294888D03*
D18*
X198750000Y-124294888D03*
D16*
X147750000Y-126560000D03*
D17*
X147750000Y-118940000D03*
X168900000Y-103800000D03*
X163900000Y-103800000D03*
D15*
X145000000Y-83500000D03*
D16*
X187000000Y-108940000D03*
D17*
X187000000Y-116560000D03*
D15*
X172000000Y-83500000D03*
D16*
X150250000Y-114310000D03*
D17*
X150250000Y-106690000D03*
X161500000Y-114250000D03*
X161500000Y-109250000D03*
D18*
X208500000Y-110690000D03*
D16*
X208500000Y-118310000D03*
X157500000Y-92190000D03*
D17*
X157500000Y-99810000D03*
D15*
X156000000Y-83500000D03*
D17*
X168000000Y-109250000D03*
X168000000Y-114250000D03*
D15*
X176000000Y-83500000D03*
X168000000Y-83500000D03*
D16*
X206000000Y-98690000D03*
D17*
X206000000Y-106310000D03*
D15*
X152000000Y-83500000D03*
D16*
X162090000Y-87950000D03*
D18*
X169710000Y-87950000D03*
X206250000Y-123750000D03*
D17*
X206250000Y-126250000D03*
X160500000Y-126560000D03*
D16*
X160500000Y-118940000D03*
D15*
X188600000Y-83500000D03*
D19*
X152360000Y-99500000D03*
D20*
X152360000Y-96960000D03*
X152360000Y-94420000D03*
D16*
X165250000Y-118940000D03*
D17*
X165250000Y-126560000D03*
D16*
X191750000Y-118690000D03*
D17*
X191750000Y-126310000D03*
X212750000Y-89250000D03*
D18*
X210750000Y-89250000D03*
D16*
X214000000Y-98690000D03*
D17*
X214000000Y-106310000D03*
D21*
X200000000Y-101800000D03*
D16*
X210000000Y-106310000D03*
D17*
X210000000Y-98690000D03*
X204250000Y-89250000D03*
X204250000Y-84250000D03*
D16*
X179810000Y-100750000D03*
D17*
X172190000Y-100750000D03*
D16*
X207560000Y-94000000D03*
D17*
X199940000Y-94000000D03*
X192500000Y-103900000D03*
X192500000Y-108900000D03*
D16*
X203750000Y-110690000D03*
D17*
X203750000Y-118310000D03*
D15*
X164010000Y-84090000D03*
X160000000Y-83500000D03*
X180000000Y-83500000D03*
D17*
X200358280Y-89250000D03*
X200358280Y-84250000D03*
D15*
X192000000Y-83500000D03*
X214000000Y-83500000D03*
X184000000Y-83500000D03*
D22*
X177040000Y-89250000D03*
D23*
X174500000Y-89250000D03*
D15*
X164310000Y-92900000D03*
D17*
X190600000Y-88590000D03*
D16*
X190600000Y-96210000D03*
D15*
X196700000Y-83500000D03*
D21*
X154100000Y-123000000D03*
D16*
X155000000Y-109190000D03*
D17*
X155000000Y-116810000D03*
D16*
X169610000Y-97600000D03*
D18*
X161990000Y-97600000D03*
D16*
X177870000Y-124500000D03*
D17*
X170250000Y-124500000D03*
X198750000Y-110690000D03*
D16*
X198750000Y-118310000D03*
D15*
X167400000Y-92900000D03*
D17*
X146750000Y-99750000D03*
X146750000Y-94750000D03*
D16*
X187200000Y-96290000D03*
D17*
X187200000Y-103910000D03*
D24*
X173530000Y-107190000D03*
D25*
X173530000Y-109730000D03*
X173530000Y-112270000D03*
X173530000Y-114810000D03*
X181470000Y-114810000D03*
X181470000Y-112270000D03*
X181470000Y-109730000D03*
X181470000Y-107190000D03*
D15*
X213000000Y-119750000D03*
D17*
X183250000Y-121250000D03*
X183250000Y-126250000D03*
D15*
X213000000Y-124500000D03*
D22*
X174510000Y-95000000D03*
D23*
X177050000Y-95000000D03*
D19*
X195500000Y-94040000D03*
D20*
X195500000Y-91500000D03*
X195500000Y-88960000D03*
D15*
X208500000Y-83500000D03*
M02*
