M48
; DRILL file {KiCad (6.0.4)} date Wed Mar 15 02:05:17 2023
; FORMAT={-:-/ absolute / metric / decimal}
; #@! TF.CreationDate,2023-03-15T02:05:17+00:00
; #@! TF.GenerationSoftware,Kicad,Pcbnew,(6.0.4)
; #@! TF.FileFunction,Plated,1,2,PTH
FMAT,2
METRIC
; #@! TA.AperFunction,Plated,PTH,ViaDrill
T1C0.400
; #@! TA.AperFunction,Plated,PTH,ComponentDrill
T2C0.730
; #@! TA.AperFunction,Plated,PTH,ComponentDrill
T3C0.800
; #@! TA.AperFunction,Plated,PTH,ComponentDrill
T4C0.900
; #@! TA.AperFunction,Plated,PTH,ComponentDrill
T5C1.000
%
G90
G05
T1
X143.75Y-110.5
X149.25Y-91.75
X158.25Y-105.5
X165.78Y-89.811
X171.75Y-91.25
X171.75Y-94.5
X184.1Y-106.5
X186.9Y-91.1
X189.8Y-100.4
X191.0Y-114.0
X195.0Y-114.0
X195.0Y-122.0
X196.75Y-85.75
X202.5Y-81.5
X208.0Y-87.25
X211.0Y-94.25
X211.25Y-83.0
X212.0Y-109.25
T2
X173.53Y-107.19
X173.53Y-109.73
X173.53Y-112.27
X173.53Y-114.81
X181.47Y-107.19
X181.47Y-109.73
X181.47Y-112.27
X181.47Y-114.81
T3
X146.0Y-106.69
X146.0Y-114.31
X146.75Y-94.75
X146.75Y-99.75
X147.75Y-118.94
X147.75Y-126.56
X150.25Y-106.69
X150.25Y-114.31
X152.36Y-94.42
X152.36Y-96.96
X152.36Y-99.5
X155.0Y-109.19
X155.0Y-116.81
X157.5Y-92.19
X157.5Y-99.81
X160.5Y-118.94
X160.5Y-126.56
X161.5Y-109.25
X161.5Y-114.25
X161.99Y-97.6
X162.09Y-87.95
X163.9Y-103.8
X165.25Y-118.94
X165.25Y-126.56
X168.0Y-109.25
X168.0Y-114.25
X168.9Y-103.8
X169.61Y-97.6
X169.71Y-87.95
X170.25Y-124.5
X172.19Y-100.75
X177.87Y-124.5
X179.81Y-100.75
X183.25Y-121.25
X183.25Y-126.25
X187.0Y-108.94
X187.0Y-116.56
X187.2Y-96.29
X187.2Y-103.91
X190.6Y-88.59
X190.6Y-96.21
X191.75Y-118.69
X191.75Y-126.31
X192.5Y-103.9
X192.5Y-108.9
X195.5Y-88.96
X195.5Y-91.5
X195.5Y-94.04
X198.75Y-110.69
X198.75Y-118.31
X198.75Y-124.295
X198.75Y-126.295
X199.94Y-94.0
X200.358Y-84.25
X200.358Y-89.25
X203.75Y-110.69
X203.75Y-118.31
X204.25Y-84.25
X204.25Y-89.25
X206.0Y-98.69
X206.0Y-106.31
X206.25Y-123.75
X206.25Y-126.25
X207.56Y-94.0
X208.5Y-110.69
X208.5Y-118.31
X210.0Y-98.69
X210.0Y-106.31
X210.75Y-89.25
X212.75Y-89.25
X214.0Y-98.69
X214.0Y-106.31
T4
X174.5Y-89.25
X174.51Y-95.0
X177.04Y-89.25
X177.05Y-95.0
T5
X145.0Y-83.5
X152.0Y-83.5
X156.0Y-83.5
X160.0Y-83.5
X164.01Y-84.09
X164.31Y-92.9
X167.4Y-92.9
X168.0Y-83.5
X172.0Y-83.5
X176.0Y-83.5
X180.0Y-83.5
X184.0Y-83.5
X188.6Y-83.5
X192.0Y-83.5
X196.7Y-83.5
X208.5Y-83.5
X213.0Y-115.0
X213.0Y-119.75
X213.0Y-124.5
X214.0Y-83.5
T0
M30
